<?xml version="1.0" encoding="UTF-8" standalone="no"?>
<svg width="326px" height="115px" viewBox="0 0 326 115" version="1.1" xmlns="http://www.w3.org/2000/svg" xmlns:xlink="http://www.w3.org/1999/xlink">
    <!-- Generator: Sketch 3.7.2 (28276) - http://www.bohemiancoding.com/sketch -->
    <title>logo</title>
    <desc>Created with Sketch.</desc>
    <defs></defs>
    <g id="Page-1" stroke="none" stroke-width="1" fill="none" fill-rule="evenodd">
        <g id="iPhone-6" transform="translate(-32.000000, -150.000000)" fill="#FFFFFF">
            <g id="logo" transform="translate(32.000000, 150.000000)">
                <g id="Group-2" transform="translate(0.000000, 34.000000)">
                    <path d="M8.77050781,45.855957 C9.15234566,46.7094769 9.78124562,47.3889135 10.6572266,47.8942871 C11.5332075,48.3996607 12.5214789,48.6523438 13.6220703,48.6523438 C13.9589861,48.6523438 14.5092735,48.6018071 15.2729492,48.5007324 C16.0366249,48.3996577 16.9182079,48.062747 17.9177246,47.4899902 C18.9172413,46.9172335 19.97851,46.0131898 21.1015625,44.777832 C22.224615,43.5424743 23.3139596,41.801769 24.3696289,39.5556641 C24.4819342,39.3085925 24.6391591,39.1232916 24.8413086,38.9997559 C25.043458,38.8762201 25.2680652,38.8144531 25.5151367,38.8144531 C25.8969746,38.8144531 26.2058094,38.9492174 26.4416504,39.21875 C26.6774914,39.4882826 26.7954102,39.7802719 26.7954102,40.0947266 C26.7954102,40.2294929 26.7504887,40.4091786 26.6606445,40.6337891 C25.8745078,42.2734457 24.99854,43.7390072 24.0327148,45.0305176 C23.0668897,46.3220279 22.0224666,47.4226029 20.8994141,48.3322754 C19.7763616,49.2419479 18.6027893,49.93823 17.3786621,50.4211426 C16.1545349,50.9040551 14.9023502,51.1455078 13.6220703,51.1455078 C12.6113231,51.1455078 11.662358,50.9882828 10.7751465,50.6738281 C9.88793502,50.3593734 9.12427078,49.9382351 8.48413086,49.4104004 C7.84399094,48.8825657 7.3386249,48.2873568 6.96801758,47.6247559 C6.59741026,46.9621549 6.41210938,46.2827183 6.41210938,45.5864258 C6.41210938,45.4965816 6.42333973,45.3730477 6.44580078,45.2158203 C6.46826183,45.058593 6.53002879,44.8845224 6.63110352,44.6936035 C6.73217824,44.5026846 6.87817287,44.3229989 7.0690918,44.154541 C7.26001072,43.9860831 7.5239241,43.8457037 7.86083984,43.7333984 C8.78174289,43.4638658 9.6296348,43.1325703 10.404541,42.739502 C11.1794472,42.3464336 11.8476534,41.9028345 12.4091797,41.4086914 C12.9707059,40.9145483 13.4086898,40.369876 13.7231445,39.7746582 C14.0375992,39.1794404 14.1948242,38.5336949 14.1948242,37.8374023 C14.1948242,37.230954 13.9926778,36.7368183 13.5883789,36.3549805 C13.18408,35.9731426 12.6899443,35.7822266 12.105957,35.7822266 C11.4995087,35.7822266 10.9042998,35.9899882 10.3203125,36.4055176 C9.73632521,36.821047 9.1691922,37.3713345 8.61889648,38.0563965 C8.06860076,38.7414585 7.54638919,39.5275835 7.05224609,40.4147949 C6.558103,41.3020064 6.10327356,42.2285108 5.68774414,43.1943359 C5.27221472,44.1601611 4.90722813,45.1203566 4.59277344,46.0749512 C4.27831874,47.0295458 4.02002054,47.9111288 3.81787109,48.7197266 C3.75048794,48.9667981 3.67749063,49.2363267 3.59887695,49.5283203 C3.52026328,49.820314 3.40234454,50.0954577 3.24511719,50.3537598 C3.08788984,50.6120618 2.89697378,50.8254386 2.67236328,50.9938965 C2.44775278,51.1623544 2.15576352,51.246582 1.79638672,51.246582 C1.45947097,51.246582 1.13379063,51.1062026 0.819335938,50.8254395 C0.50488124,50.5446763 0.34765625,50.0673862 0.34765625,49.3935547 C0.34765625,49.2587884 0.353271428,48.742192 0.364501953,47.84375 C0.375732478,46.945308 0.392578013,45.7717358 0.415039062,44.322998 C0.437500112,42.8742603 0.465576003,41.2121676 0.499267578,39.3366699 C0.532959153,37.4611723 0.561035044,35.4733992 0.583496094,33.373291 C0.605957144,31.2731829 0.639648213,29.1113392 0.684570312,26.8876953 C0.729492412,24.6640514 0.763183481,22.4965926 0.785644531,20.3852539 C0.808105581,18.2739152 0.836181472,16.2692966 0.869873047,14.3713379 C0.903564622,12.4733792 0.931640513,10.7888257 0.954101562,9.31762695 C0.976562612,7.84642819 0.993408147,6.64478005 1.00463867,5.71264648 C1.0158692,4.78051292 1.02148438,4.22461027 1.02148438,4.04492188 C1.02148438,3.68554508 1.15624865,3.38794063 1.42578125,3.15209961 C1.69531385,2.91625859 1.98730312,2.79833984 2.30175781,2.79833984 C2.66113461,2.79833984 2.96435423,2.91625859 3.21142578,3.15209961 C3.45849733,3.38794063 3.58203125,3.69677543 3.58203125,4.07861328 C3.58203125,4.12353538 3.57641607,4.56713446 3.56518555,5.40942383 C3.55395502,6.2517132 3.53710949,7.38036402 3.51464844,8.79541016 C3.49218739,10.2104563 3.4641115,11.8613187 3.43041992,13.7480469 C3.39672835,15.6347751 3.36303728,17.6393937 3.3293457,19.7619629 C3.29565413,21.8845321 3.26196306,24.0688364 3.22827148,26.3149414 C3.19457991,28.5610464 3.16088884,30.7509659 3.12719727,32.8847656 C3.09350569,35.0185654 3.0654298,37.0512599 3.04296875,38.9829102 C3.0205077,40.9145604 2.99804699,42.6215746 2.97558594,44.1040039 C3.33496273,42.9584904 3.79540735,41.751227 4.35693359,40.4821777 C4.91845984,39.2131284 5.58105087,38.0395562 6.34472656,36.9614258 C7.10840226,35.8832954 7.96752452,34.9960972 8.92211914,34.2998047 C9.87671376,33.6035121 10.9379824,33.2553711 12.105957,33.2553711 C12.7573275,33.2553711 13.3637667,33.3732898 13.925293,33.6091309 C14.4868192,33.8449719 14.9753397,34.1706522 15.3908691,34.5861816 C15.8063986,35.0017111 16.1320789,35.4902316 16.3679199,36.0517578 C16.6037609,36.6132841 16.7216797,37.2197233 16.7216797,37.8710938 C16.7216797,38.881841 16.4970726,39.8083454 16.0478516,40.6506348 C15.5986306,41.4929241 15.0034217,42.245358 14.262207,42.907959 C13.5209924,43.57056 12.6731005,44.1489233 11.7185059,44.6430664 C10.7639112,45.1372095 9.78125505,45.5415023 8.77050781,45.855957 L8.77050781,45.855957 Z M29.8613281,23.5522461 C29.8613281,24.405766 29.5637237,25.130124 28.9685059,25.7253418 C28.373288,26.3205596 27.64893,26.6181641 26.7954102,26.6181641 C25.9418903,26.6181641 25.2175323,26.3205596 24.6223145,25.7253418 C24.0270966,25.130124 23.7294922,24.405766 23.7294922,23.5522461 C23.7294922,23.1254861 23.8081047,22.7268085 23.965332,22.3562012 C24.1225594,21.9855939 24.3415513,21.6599135 24.6223145,21.3791504 C24.9030776,21.0983873 25.2287579,20.8793953 25.5993652,20.722168 C25.9699726,20.5649406 26.3686502,20.4863281 26.7954102,20.4863281 C27.2221701,20.4863281 27.6208478,20.5649406 27.9914551,20.722168 C28.3620624,20.8793953 28.6877427,21.0983873 28.9685059,21.3791504 C29.249269,21.6599135 29.4682609,21.9855939 29.6254883,22.3562012 C29.7827156,22.7268085 29.8613281,23.1254861 29.8613281,23.5522461 L29.8613281,23.5522461 Z M24.4033203,43.2954102 C24.4033203,40.061019 24.6054667,36.8379067 25.0097656,33.6259766 C25.0546877,33.3115219 25.1950672,33.0363781 25.4309082,32.8005371 C25.6667492,32.5646961 25.975584,32.4467773 26.3574219,32.4467773 C26.6943376,32.4467773 26.9750965,32.5759264 27.199707,32.8342285 C27.4243175,33.0925306 27.5366211,33.390135 27.5366211,33.7270508 C27.5366211,33.8618171 27.5085452,34.2661099 27.4523926,34.9399414 C27.39624,35.6137729 27.3288578,36.4167434 27.2502441,37.348877 C27.1716305,38.2810105 27.1042483,39.2692819 27.0480957,40.3137207 C26.9919431,41.3581595 26.9638672,42.318355 26.9638672,43.1943359 C26.9638672,44.3847716 27.0817859,45.3449671 27.317627,46.0749512 C27.553468,46.8049353 27.8566876,47.3720683 28.2272949,47.7763672 C28.5979022,48.1806661 28.9909647,48.4501946 29.4064941,48.5849609 C29.8220236,48.7197272 30.2207012,48.7871094 30.6025391,48.7871094 C31.2314485,48.7871094 31.8828091,48.5625022 32.5566406,48.1132812 C33.2304721,47.6640603 33.921139,47.0351603 34.6286621,46.2265625 C35.3361852,45.4179647 36.0493128,44.4465389 36.7680664,43.3122559 C37.48682,42.1779728 38.1943325,40.9145577 38.890625,39.5219727 C39.0029302,39.2973622 39.1601552,39.1232916 39.3623047,38.9997559 C39.5644541,38.8762201 39.7890613,38.8144531 40.0361328,38.8144531 C40.3955096,38.8144531 40.6931141,38.9492174 40.9289551,39.21875 C41.1647961,39.4882826 41.2827148,39.7802719 41.2827148,40.0947266 C41.2827148,40.3193371 41.2377934,40.5102531 41.1479492,40.6674805 C40.8784166,41.1840846 40.5415059,41.8129846 40.137207,42.5541992 C39.7329081,43.2954139 39.2724635,44.0590781 38.7558594,44.8452148 C38.2392552,45.6313516 37.6721222,46.4118614 37.0544434,47.1867676 C36.4367645,47.9616738 35.7797886,48.6579559 35.0834961,49.2756348 C34.3872035,49.8933136 33.6572304,50.3930645 32.8935547,50.7749023 C32.129879,51.1567402 31.3549844,51.3476562 30.5688477,51.3476562 C29.5581004,51.3476562 28.6709023,51.1342795 27.9072266,50.7075195 C27.1435509,50.2807596 26.4978054,49.7080114 25.9699707,48.9892578 C25.442136,48.2705042 25.0490736,47.4226123 24.7907715,46.4455566 C24.5324694,45.468501 24.4033203,44.4184626 24.4033203,43.2954102 L24.4033203,43.2954102 Z M27.9746094,23.5522461 C27.9746094,23.2377914 27.8566906,22.9626477 27.6208496,22.7268066 C27.3850086,22.4909656 27.1098649,22.3730469 26.7954102,22.3730469 C26.4809555,22.3730469 26.2114269,22.4909656 25.9868164,22.7268066 C25.7622059,22.9626477 25.6499023,23.2377914 25.6499023,23.5522461 C25.6499023,23.8667008 25.7622059,24.1362293 25.9868164,24.3608398 C26.2114269,24.5854503 26.4809555,24.6977539 26.7954102,24.6977539 C27.1098649,24.6977539 27.3850086,24.5854503 27.6208496,24.3608398 C27.8566906,24.1362293 27.9746094,23.8667008 27.9746094,23.5522461 L27.9746094,23.5522461 Z M42.3945312,36.152832 C42.3046871,36.7592804 42.1923835,37.3264134 42.0576172,37.854248 C41.9228509,38.3820827 41.7937018,38.8425273 41.670166,39.2355957 C41.5466302,39.6286641 41.4399419,39.9487292 41.3500977,40.1958008 C41.2602535,40.4428723 41.2041017,40.5776366 41.1816406,40.6000977 C40.9570301,41.1167018 40.5639677,41.375 40.0024414,41.375 C39.6879867,41.375 39.3959974,41.2570813 39.1264648,41.0212402 C38.8569322,40.7853992 38.722168,40.4877948 38.722168,40.128418 C38.722168,39.9936517 38.7446287,39.8925785 38.7895508,39.8251953 C38.8344729,39.7578122 38.901855,39.6230479 38.9916992,39.4208984 C39.0815434,39.218749 39.193847,38.8818383 39.3286133,38.4101562 C39.4633796,37.9384742 39.6318349,37.208501 39.8339844,36.2202148 C39.4521465,36.2202148 39.0590841,36.2089845 38.6547852,36.1865234 C38.2504863,36.1640624 37.8742693,36.0854499 37.526123,35.9506836 C37.1779768,35.8159173 36.8916027,35.6025405 36.6669922,35.3105469 C36.4423817,35.0185532 36.3300781,34.6142604 36.3300781,34.0976562 C36.3300781,33.7158184 36.4367665,33.199222 36.6501465,32.5478516 C36.8635265,31.8964811 37.1499005,31.2563508 37.5092773,30.6274414 C37.8686541,29.998532 38.272947,29.4538597 38.722168,28.9934082 C39.171389,28.5329567 39.6206032,28.3027344 40.0698242,28.3027344 C40.5864284,28.3027344 41.0075667,28.4936504 41.333252,28.8754883 C41.6589372,29.2573261 41.9116202,29.7233859 42.0913086,30.2736816 C42.270997,30.8239774 42.4001461,31.4023407 42.4787598,32.0087891 C42.5573734,32.6152374 42.5966797,33.1430642 42.5966797,33.5922852 C42.9785175,33.5922852 43.3547345,33.58667 43.7253418,33.5754395 C44.0959491,33.5642089 44.4497053,33.5585938 44.7866211,33.5585938 C46.0669009,33.5585938 47.0439419,33.8393527 47.7177734,34.4008789 C48.3916049,34.9624052 48.7285156,35.8832944 48.7285156,37.1635742 C48.7285156,37.6801784 48.6948246,38.2192355 48.6274414,38.7807617 C48.5600583,39.342288 48.4814458,39.9206513 48.3916016,40.5158691 C48.3017574,41.111087 48.2231449,41.7006807 48.1557617,42.284668 C48.0883786,42.8686553 48.0546875,43.4414034 48.0546875,44.0029297 C48.0546875,44.8115275 48.1669911,45.4797337 48.3916016,46.0075684 C48.6162121,46.535403 48.896971,46.9565414 49.2338867,47.2709961 C49.5708025,47.5854508 49.9301739,47.8044427 50.3120117,47.9279785 C50.6938496,48.0515143 51.0419906,48.1132812 51.3564453,48.1132812 C52.3222705,48.1132812 53.2319293,47.7988313 54.0854492,47.1699219 C54.9389691,46.5410125 55.7250941,45.7829634 56.4438477,44.895752 C57.1626013,44.0085405 57.8083467,43.0708057 58.3811035,42.0825195 C58.9538603,41.0942333 59.4311504,40.2294959 59.8129883,39.4882812 C59.9252935,39.2861318 60.0825185,39.1289068 60.284668,39.0166016 C60.4868174,38.9042963 60.7001942,38.8481445 60.9248047,38.8481445 C61.3291036,38.8481445 61.6435536,38.9772936 61.8681641,39.2355957 C62.0927746,39.4938978 62.2050781,39.7802719 62.2050781,40.0947266 C62.2050781,40.3193371 62.1601567,40.5214835 62.0703125,40.7011719 C61.5537084,41.6220749 60.9528843,42.6608829 60.2678223,43.817627 C59.5827602,44.974371 58.8022505,46.0581004 57.9262695,47.0688477 C57.0502886,48.0795949 56.0676324,48.933102 54.9782715,49.6293945 C53.8889106,50.3256871 52.6928776,50.6738281 51.3901367,50.6738281 C50.5815389,50.6738281 49.8178747,50.5222183 49.0991211,50.2189941 C48.3803675,49.91577 47.7570827,49.4777861 47.229248,48.9050293 C46.7014134,48.3322725 46.280275,47.6247601 45.9658203,46.7824707 C45.6513656,45.9401813 45.4941406,44.9912162 45.4941406,43.9355469 C45.4941406,42.8124944 45.6064442,41.6950739 45.8310547,40.583252 C46.0556652,39.47143 46.1679688,38.4101613 46.1679688,37.3994141 C46.1679688,36.9726541 46.0725107,36.652589 45.8815918,36.439209 C45.6906729,36.225829 45.2695345,36.1191406 44.6181641,36.1191406 L43.5905762,36.1191406 C43.2199689,36.1191406 42.8212912,36.130371 42.3945312,36.152832 L42.3945312,36.152832 Z M40.137207,33.659668 C40.137207,33.5024406 40.1315919,33.294679 40.1203613,33.036377 C40.1091308,32.7780749 40.0866701,32.5253919 40.0529785,32.2783203 C40.0192869,32.0312488 39.9743655,31.817872 39.9182129,31.6381836 C39.8620603,31.4584952 39.8002933,31.3686523 39.7329102,31.3686523 C39.665527,31.3686523 39.5812993,31.45288 39.4802246,31.6213379 C39.3791499,31.7897958 39.2724615,31.9919422 39.1601562,32.2277832 C39.047851,32.4636242 38.9467778,32.7163072 38.8569336,32.9858398 C38.7670894,33.2553724 38.6997073,33.4799796 38.6547852,33.659668 L40.137207,33.659668 Z M63.3168945,36.152832 C63.2270503,36.7592804 63.1147468,37.3264134 62.9799805,37.854248 C62.8452142,38.3820827 62.7160651,38.8425273 62.5925293,39.2355957 C62.4689935,39.6286641 62.3623051,39.9487292 62.2724609,40.1958008 C62.1826167,40.4428723 62.126465,40.5776366 62.1040039,40.6000977 C61.8793934,41.1167018 61.4863309,41.375 60.9248047,41.375 C60.61035,41.375 60.3183607,41.2570813 60.0488281,41.0212402 C59.7792955,40.7853992 59.6445312,40.4877948 59.6445312,40.128418 C59.6445312,39.9936517 59.666992,39.8925785 59.7119141,39.8251953 C59.7568362,39.7578122 59.8242183,39.6230479 59.9140625,39.4208984 C60.0039067,39.218749 60.1162103,38.8818383 60.2509766,38.4101562 C60.3857429,37.9384742 60.5541982,37.208501 60.7563477,36.2202148 C60.3745098,36.2202148 59.9814473,36.2089845 59.5771484,36.1865234 C59.1728495,36.1640624 58.7966326,36.0854499 58.4484863,35.9506836 C58.1003401,35.8159173 57.813966,35.6025405 57.5893555,35.3105469 C57.364745,35.0185532 57.2524414,34.6142604 57.2524414,34.0976562 C57.2524414,33.7158184 57.3591298,33.199222 57.5725098,32.5478516 C57.7858897,31.8964811 58.0722638,31.2563508 58.4316406,30.6274414 C58.7910174,29.998532 59.1953103,29.4538597 59.6445312,28.9934082 C60.0937522,28.5329567 60.5429665,28.3027344 60.9921875,28.3027344 C61.5087916,28.3027344 61.92993,28.4936504 62.2556152,28.8754883 C62.5813005,29.2573261 62.8339835,29.7233859 63.0136719,30.2736816 C63.1933603,30.8239774 63.3225094,31.4023407 63.401123,32.0087891 C63.4797367,32.6152374 63.519043,33.1430642 63.519043,33.5922852 C63.9008808,33.5922852 64.2770978,33.58667 64.6477051,33.5754395 C65.0183124,33.5642089 65.3720686,33.5585938 65.7089844,33.5585938 C66.9892642,33.5585938 67.9663052,33.8393527 68.6401367,34.4008789 C69.3139682,34.9624052 69.6508789,35.8832944 69.6508789,37.1635742 C69.6508789,37.6801784 69.6171878,38.2192355 69.5498047,38.7807617 C69.4824215,39.342288 69.403809,39.9206513 69.3139648,40.5158691 C69.2241206,41.111087 69.1455081,41.7006807 69.078125,42.284668 C69.0107419,42.8686553 68.9770508,43.4414034 68.9770508,44.0029297 C68.9770508,44.8115275 69.0893543,45.4797337 69.3139648,46.0075684 C69.5385753,46.535403 69.8193343,46.9565414 70.15625,47.2709961 C70.4931657,47.5854508 70.8525372,47.8044427 71.234375,47.9279785 C71.6162128,48.0515143 71.9643539,48.1132812 72.2788086,48.1132812 C73.2446337,48.1132812 74.1542926,47.7988313 75.0078125,47.1699219 C75.8613324,46.5410125 76.6474573,45.7829634 77.3662109,44.895752 C78.0849645,44.0085405 78.73071,43.0708057 79.3034668,42.0825195 C79.8762236,41.0942333 80.3535137,40.2294959 80.7353516,39.4882812 C80.8476568,39.2861318 81.0048818,39.1289068 81.2070312,39.0166016 C81.4091807,38.9042963 81.6225575,38.8481445 81.847168,38.8481445 C82.2514669,38.8481445 82.5659168,38.9772936 82.7905273,39.2355957 C83.0151378,39.4938978 83.1274414,39.7802719 83.1274414,40.0947266 C83.1274414,40.3193371 83.08252,40.5214835 82.9926758,40.7011719 C82.4760716,41.6220749 81.8752476,42.6608829 81.1901855,43.817627 C80.5051235,44.974371 79.7246138,46.0581004 78.8486328,47.0688477 C77.9726519,48.0795949 76.9899957,48.933102 75.9006348,49.6293945 C74.8112739,50.3256871 73.6152409,50.6738281 72.3125,50.6738281 C71.5039022,50.6738281 70.740238,50.5222183 70.0214844,50.2189941 C69.3027308,49.91577 68.679446,49.4777861 68.1516113,48.9050293 C67.6237767,48.3322725 67.2026383,47.6247601 66.8881836,46.7824707 C66.5737289,45.9401813 66.4165039,44.9912162 66.4165039,43.9355469 C66.4165039,42.8124944 66.5288075,41.6950739 66.753418,40.583252 C66.9780285,39.47143 67.090332,38.4101613 67.090332,37.3994141 C67.090332,36.9726541 66.994874,36.652589 66.8039551,36.439209 C66.6130362,36.225829 66.1918978,36.1191406 65.5405273,36.1191406 L64.5129395,36.1191406 C64.1423321,36.1191406 63.7436545,36.130371 63.3168945,36.152832 L63.3168945,36.152832 Z M61.0595703,33.659668 C61.0595703,33.5024406 61.0539551,33.294679 61.0427246,33.036377 C61.0314941,32.7780749 61.0090334,32.5253919 60.9753418,32.2783203 C60.9416502,32.0312488 60.8967288,31.817872 60.8405762,31.6381836 C60.7844235,31.4584952 60.7226566,31.3686523 60.6552734,31.3686523 C60.5878903,31.3686523 60.5036626,31.45288 60.4025879,31.6213379 C60.3015132,31.7897958 60.1948248,31.9919422 60.0825195,32.2277832 C59.9702143,32.4636242 59.8691411,32.7163072 59.7792969,32.9858398 C59.6894527,33.2553724 59.6220705,33.4799796 59.5771484,33.659668 L61.0595703,33.659668 Z M86.1933594,23.5522461 C86.1933594,24.405766 85.8957549,25.130124 85.3005371,25.7253418 C84.7053193,26.3205596 83.9809613,26.6181641 83.1274414,26.6181641 C82.2739215,26.6181641 81.5495635,26.3205596 80.9543457,25.7253418 C80.3591279,25.130124 80.0615234,24.405766 80.0615234,23.5522461 C80.0615234,23.1254861 80.1401359,22.7268085 80.2973633,22.3562012 C80.4545906,21.9855939 80.6735826,21.6599135 80.9543457,21.3791504 C81.2351088,21.0983873 81.5607892,20.8793953 81.9313965,20.722168 C82.3020038,20.5649406 82.7006815,20.4863281 83.1274414,20.4863281 C83.5542014,20.4863281 83.952879,20.5649406 84.3234863,20.722168 C84.6940936,20.8793953 85.019774,21.0983873 85.3005371,21.3791504 C85.5813002,21.6599135 85.8002922,21.9855939 85.9575195,22.3562012 C86.1147469,22.7268085 86.1933594,23.1254861 86.1933594,23.5522461 L86.1933594,23.5522461 Z M80.7353516,43.2954102 C80.7353516,40.061019 80.937498,36.8379067 81.3417969,33.6259766 C81.386719,33.3115219 81.5270984,33.0363781 81.7629395,32.8005371 C81.9987805,32.5646961 82.3076153,32.4467773 82.6894531,32.4467773 C83.0263689,32.4467773 83.3071278,32.5759264 83.5317383,32.8342285 C83.7563488,33.0925306 83.8686523,33.390135 83.8686523,33.7270508 C83.8686523,33.8618171 83.8405765,34.2661099 83.7844238,34.9399414 C83.7282712,35.6137729 83.6608891,36.4167434 83.5822754,37.348877 C83.5036617,38.2810105 83.4362796,39.2692819 83.380127,40.3137207 C83.3239743,41.3581595 83.2958984,42.318355 83.2958984,43.1943359 C83.2958984,44.3847716 83.4138172,45.3449671 83.6496582,46.0749512 C83.8854992,46.8049353 84.1887189,47.3720683 84.5593262,47.7763672 C84.9299335,48.1806661 85.322996,48.4501946 85.7385254,48.5849609 C86.1540548,48.7197272 86.5527325,48.7871094 86.9345703,48.7871094 C87.5634797,48.7871094 88.2148404,48.5625022 88.8886719,48.1132812 C89.5625034,47.6640603 90.2531703,47.0351603 90.9606934,46.2265625 C91.6682164,45.4179647 92.3813441,44.4465389 93.1000977,43.3122559 C93.8188513,42.1779728 94.5263637,40.9145577 95.2226563,39.5219727 C95.3349615,39.2973622 95.4921865,39.1232916 95.6943359,38.9997559 C95.8964854,38.8762201 96.1210925,38.8144531 96.3681641,38.8144531 C96.7275409,38.8144531 97.0251453,38.9492174 97.2609863,39.21875 C97.4968274,39.4882826 97.6147461,39.7802719 97.6147461,40.0947266 C97.6147461,40.3193371 97.5698247,40.5102531 97.4799805,40.6674805 C97.2104479,41.1840846 96.8735372,41.8129846 96.4692383,42.5541992 C96.0649394,43.2954139 95.6044948,44.0590781 95.0878906,44.8452148 C94.5712865,45.6313516 94.0041535,46.4118614 93.3864746,47.1867676 C92.7687957,47.9616738 92.1118199,48.6579559 91.4155273,49.2756348 C90.7192348,49.8933136 89.9892616,50.3930645 89.2255859,50.7749023 C88.4619102,51.1567402 87.6870156,51.3476562 86.9008789,51.3476562 C85.8901317,51.3476562 85.0029335,51.1342795 84.2392578,50.7075195 C83.4755821,50.2807596 82.8298366,49.7080114 82.302002,48.9892578 C81.7741673,48.2705042 81.3811048,47.4226123 81.1228027,46.4455566 C80.8645007,45.468501 80.7353516,44.4184626 80.7353516,43.2954102 L80.7353516,43.2954102 Z M84.3066406,23.5522461 C84.3066406,23.2377914 84.1887219,22.9626477 83.9528809,22.7268066 C83.7170398,22.4909656 83.4418961,22.3730469 83.1274414,22.3730469 C82.8129867,22.3730469 82.5434582,22.4909656 82.3188477,22.7268066 C82.0942372,22.9626477 81.9819336,23.2377914 81.9819336,23.5522461 C81.9819336,23.8667008 82.0942372,24.1362293 82.3188477,24.3608398 C82.5434582,24.5854503 82.8129867,24.6977539 83.1274414,24.6977539 C83.4418961,24.6977539 83.7170398,24.5854503 83.9528809,24.3608398 C84.1887219,24.1362293 84.3066406,23.8667008 84.3066406,23.5522461 L84.3066406,23.5522461 Z M114.359375,40.6674805 C114.112303,41.1840846 113.803469,41.796139 113.432861,42.5036621 C113.062254,43.2111852 112.641116,43.9467735 112.169434,44.7104492 C111.697752,45.4741249 111.169925,46.232174 110.585938,46.9846191 C110.00195,47.7370643 109.367435,48.4108857 108.682373,49.0061035 C107.997311,49.6013213 107.267338,50.0842267 106.492432,50.454834 C105.717525,50.8254413 104.892094,51.0107422 104.016113,51.0107422 C102.66845,51.0107422 101.511724,50.595219 100.545898,49.7641602 C99.5800733,48.9331013 98.7602573,47.8437567 98.0864258,46.4960938 C97.4125943,45.1484308 96.867922,43.6154871 96.4523926,41.8972168 C96.0368632,40.1789465 95.716798,38.4270109 95.4921875,36.6413574 C95.267577,34.855704 95.1159672,33.1206139 95.0373535,31.4360352 C94.9587398,29.7514564 94.9194336,28.257819 94.9194336,26.9550781 C94.9194336,25.0683499 94.9812006,23.1142679 95.1047363,21.0927734 C95.2282721,19.071279 95.4248033,17.0947362 95.6943359,15.1630859 C95.9638685,13.2314357 96.3063944,11.4008876 96.7219238,9.67138672 C97.1374532,7.94188588 97.6315889,6.42578776 98.2043457,5.12304688 C98.7771025,3.82030599 99.4340783,2.78711319 100.175293,2.0234375 C100.916508,1.25976181 101.758784,0.877929688 102.702148,0.877929688 C103.443363,0.877929688 104.111569,1.05200021 104.706787,1.40014648 C105.302005,1.74829276 105.801756,2.31542576 106.206055,3.1015625 C106.610354,3.88769924 106.924804,4.90966168 107.149414,6.16748047 C107.374025,7.42529926 107.486328,8.96385809 107.486328,10.7832031 C107.486328,13.0293081 107.250491,15.3483767 106.778809,17.7404785 C106.307127,20.1325803 105.666996,22.5414918 104.858398,24.9672852 C104.049801,27.3930785 103.09522,29.8132203 101.994629,32.2277832 C100.894037,34.6423461 99.71485,36.9951057 98.4570312,39.2861328 C99.0185575,42.1386861 99.7709914,44.3791422 100.714355,46.0075684 C101.65772,47.6359945 102.791986,48.4501953 104.117188,48.4501953 C105.015629,48.4501953 105.880367,48.0964391 106.711426,47.388916 C107.542485,46.6813929 108.306149,45.8447314 109.002441,44.8789062 C109.698734,43.9130811 110.310788,42.9304249 110.838623,41.9309082 C111.366458,40.9313915 111.776366,40.128421 112.068359,39.5219727 C112.180665,39.2973622 112.33789,39.1232916 112.540039,38.9997559 C112.742189,38.8762201 112.966796,38.8144531 113.213867,38.8144531 C113.595705,38.8144531 113.90454,38.9492174 114.140381,39.21875 C114.376222,39.4882826 114.494141,39.7915022 114.494141,40.128418 C114.494141,40.2631843 114.449219,40.44287 114.359375,40.6674805 L114.359375,40.6674805 Z M97.4799805,27.1235352 C97.4799805,28.5610423 97.5136715,29.9423762 97.5810547,31.2675781 C97.6484378,32.5927801 97.7382807,33.8618103 97.8505859,35.074707 C98.79395,33.255362 99.6923785,31.3181255 100.545898,29.2629395 C101.399418,27.2077534 102.151852,25.1301375 102.803223,23.0300293 C103.454593,20.9299211 103.976805,18.8410748 104.369873,16.7634277 C104.762941,14.6857806 104.959473,12.7036227 104.959473,10.8168945 C104.959473,8.16649065 104.746096,6.26856042 104.319336,5.12304688 C103.892576,3.97753333 103.319828,3.40478516 102.601074,3.40478516 C102.129392,3.40478516 101.674563,3.73046549 101.236572,4.38183594 C100.798582,5.03320638 100.388674,5.92040454 100.006836,7.04345703 C99.6249981,8.16650952 99.276857,9.49169158 98.9624023,11.019043 C98.6479476,12.5463944 98.3840343,14.1860264 98.1706543,15.9379883 C97.9572743,17.6899502 97.788819,19.5204983 97.6652832,21.4296875 C97.5417474,23.3388767 97.4799805,25.236807 97.4799805,27.1235352 L97.4799805,27.1235352 Z M131.23877,40.6674805 C130.991698,41.1840846 130.682863,41.796139 130.312256,42.5036621 C129.941649,43.2111852 129.52051,43.9467735 129.048828,44.7104492 C128.577146,45.4741249 128.049319,46.232174 127.465332,46.9846191 C126.881345,47.7370643 126.24683,48.4108857 125.561768,49.0061035 C124.876706,49.6013213 124.146732,50.0842267 123.371826,50.454834 C122.59692,50.8254413 121.771489,51.0107422 120.895508,51.0107422 C119.547845,51.0107422 118.391118,50.595219 117.425293,49.7641602 C116.459468,48.9331013 115.639652,47.8437567 114.96582,46.4960938 C114.291989,45.1484308 113.747317,43.6154871 113.331787,41.8972168 C112.916258,40.1789465 112.596193,38.4270109 112.371582,36.6413574 C112.146972,34.855704 111.995362,33.1206139 111.916748,31.4360352 C111.838134,29.7514564 111.798828,28.257819 111.798828,26.9550781 C111.798828,25.0683499 111.860595,23.1142679 111.984131,21.0927734 C112.107667,19.071279 112.304198,17.0947362 112.57373,15.1630859 C112.843263,13.2314357 113.185789,11.4008876 113.601318,9.67138672 C114.016848,7.94188588 114.510983,6.42578776 115.08374,5.12304688 C115.656497,3.82030599 116.313473,2.78711319 117.054687,2.0234375 C117.795902,1.25976181 118.638179,0.877929688 119.581543,0.877929688 C120.322758,0.877929688 120.990964,1.05200021 121.586182,1.40014648 C122.181399,1.74829276 122.68115,2.31542576 123.085449,3.1015625 C123.489748,3.88769924 123.804198,4.90966168 124.028809,6.16748047 C124.253419,7.42529926 124.365723,8.96385809 124.365723,10.7832031 C124.365723,13.0293081 124.129885,15.3483767 123.658203,17.7404785 C123.186521,20.1325803 122.546391,22.5414918 121.737793,24.9672852 C120.929195,27.3930785 119.974615,29.8132203 118.874023,32.2277832 C117.773432,34.6423461 116.594245,36.9951057 115.336426,39.2861328 C115.897952,42.1386861 116.650386,44.3791422 117.59375,46.0075684 C118.537114,47.6359945 119.67138,48.4501953 120.996582,48.4501953 C121.895024,48.4501953 122.759761,48.0964391 123.59082,47.388916 C124.421879,46.6813929 125.185543,45.8447314 125.881836,44.8789062 C126.578128,43.9130811 127.190183,42.9304249 127.718018,41.9309082 C128.245852,40.9313915 128.65576,40.128421 128.947754,39.5219727 C129.060059,39.2973622 129.217284,39.1232916 129.419434,38.9997559 C129.621583,38.8762201 129.84619,38.8144531 130.093262,38.8144531 C130.4751,38.8144531 130.783934,38.9492174 131.019775,39.21875 C131.255616,39.4882826 131.373535,39.7915022 131.373535,40.128418 C131.373535,40.2631843 131.328614,40.44287 131.23877,40.6674805 L131.23877,40.6674805 Z M114.359375,27.1235352 C114.359375,28.5610423 114.393066,29.9423762 114.460449,31.2675781 C114.527832,32.5927801 114.617675,33.8618103 114.72998,35.074707 C115.673345,33.255362 116.571773,31.3181255 117.425293,29.2629395 C118.278813,27.2077534 119.031247,25.1301375 119.682617,23.0300293 C120.333988,20.9299211 120.856199,18.8410748 121.249268,16.7634277 C121.642336,14.6857806 121.838867,12.7036227 121.838867,10.8168945 C121.838867,8.16649065 121.62549,6.26856042 121.19873,5.12304688 C120.771971,3.97753333 120.199222,3.40478516 119.480469,3.40478516 C119.008787,3.40478516 118.553957,3.73046549 118.115967,4.38183594 C117.677976,5.03320638 117.268068,5.92040454 116.88623,7.04345703 C116.504393,8.16650952 116.156252,9.49169158 115.841797,11.019043 C115.527342,12.5463944 115.263429,14.1860264 115.050049,15.9379883 C114.836669,17.6899502 114.668214,19.5204983 114.544678,21.4296875 C114.421142,23.3388767 114.359375,25.236807 114.359375,27.1235352 L114.359375,27.1235352 Z M134.439453,23.5522461 C134.439453,24.405766 134.141849,25.130124 133.546631,25.7253418 C132.951413,26.3205596 132.227055,26.6181641 131.373535,26.6181641 C130.520015,26.6181641 129.795657,26.3205596 129.200439,25.7253418 C128.605222,25.130124 128.307617,24.405766 128.307617,23.5522461 C128.307617,23.1254861 128.38623,22.7268085 128.543457,22.3562012 C128.700684,21.9855939 128.919676,21.6599135 129.200439,21.3791504 C129.481203,21.0983873 129.806883,20.8793953 130.17749,20.722168 C130.548098,20.5649406 130.946775,20.4863281 131.373535,20.4863281 C131.800295,20.4863281 132.198973,20.5649406 132.56958,20.722168 C132.940187,20.8793953 133.265868,21.0983873 133.546631,21.3791504 C133.827394,21.6599135 134.046386,21.9855939 134.203613,22.3562012 C134.360841,22.7268085 134.439453,23.1254861 134.439453,23.5522461 L134.439453,23.5522461 Z M128.981445,43.2954102 C128.981445,40.061019 129.183592,36.8379067 129.587891,33.6259766 C129.632813,33.3115219 129.773192,33.0363781 130.009033,32.8005371 C130.244874,32.5646961 130.553709,32.4467773 130.935547,32.4467773 C131.272463,32.4467773 131.553222,32.5759264 131.777832,32.8342285 C132.002443,33.0925306 132.114746,33.390135 132.114746,33.7270508 C132.114746,33.8618171 132.08667,34.2661099 132.030518,34.9399414 C131.974365,35.6137729 131.906983,36.4167434 131.828369,37.348877 C131.749755,38.2810105 131.682373,39.2692819 131.626221,40.3137207 C131.570068,41.3581595 131.541992,42.318355 131.541992,43.1943359 C131.541992,44.3847716 131.659911,45.3449671 131.895752,46.0749512 C132.131593,46.8049353 132.434813,47.3720683 132.80542,47.7763672 C133.176027,48.1806661 133.56909,48.4501946 133.984619,48.5849609 C134.400149,48.7197272 134.798826,48.7871094 135.180664,48.7871094 C135.809573,48.7871094 136.460934,48.5625022 137.134766,48.1132812 C137.808597,47.6640603 138.499264,47.0351603 139.206787,46.2265625 C139.91431,45.4179647 140.627438,44.4465389 141.346191,43.3122559 C142.064945,42.1779728 142.772457,40.9145577 143.46875,39.5219727 C143.581055,39.2973622 143.73828,39.1232916 143.94043,38.9997559 C144.142579,38.8762201 144.367186,38.8144531 144.614258,38.8144531 C144.973635,38.8144531 145.271239,38.9492174 145.50708,39.21875 C145.742921,39.4882826 145.86084,39.7802719 145.86084,40.0947266 C145.86084,40.3193371 145.815918,40.5102531 145.726074,40.6674805 C145.456542,41.1840846 145.119631,41.8129846 144.715332,42.5541992 C144.311033,43.2954139 143.850589,44.0590781 143.333984,44.8452148 C142.81738,45.6313516 142.250247,46.4118614 141.632568,47.1867676 C141.014889,47.9616738 140.357914,48.6579559 139.661621,49.2756348 C138.965329,49.8933136 138.235355,50.3930645 137.47168,50.7749023 C136.708004,51.1567402 135.933109,51.3476562 135.146973,51.3476562 C134.136225,51.3476562 133.249027,51.1342795 132.485352,50.7075195 C131.721676,50.2807596 131.07593,49.7080114 130.548096,48.9892578 C130.020261,48.2705042 129.627199,47.4226123 129.368896,46.4455566 C129.110594,45.468501 128.981445,44.4184626 128.981445,43.2954102 L128.981445,43.2954102 Z M132.552734,23.5522461 C132.552734,23.2377914 132.434816,22.9626477 132.198975,22.7268066 C131.963134,22.4909656 131.68799,22.3730469 131.373535,22.3730469 C131.05908,22.3730469 130.789552,22.4909656 130.564941,22.7268066 C130.340331,22.9626477 130.228027,23.2377914 130.228027,23.5522461 C130.228027,23.8667008 130.340331,24.1362293 130.564941,24.3608398 C130.789552,24.5854503 131.05908,24.6977539 131.373535,24.6977539 C131.68799,24.6977539 131.963134,24.5854503 132.198975,24.3608398 C132.434816,24.1362293 132.552734,23.8667008 132.552734,23.5522461 L132.552734,23.5522461 Z" id="kirrilli"></path>
                    <path d="M210.828125,31.4111328 C210.828125,31.9078801 210.650718,32.3425274 210.295898,32.7150879 C209.941079,33.0876483 209.426598,33.2739258 208.752441,33.2739258 C208.255694,33.2739258 207.732343,33.2561851 207.182373,33.2207031 C206.632403,33.1852212 205.842941,33.1674805 204.813965,33.1674805 C204.281736,33.1674805 203.492274,33.1940915 202.445557,33.2473145 C201.398839,33.3005374 200.210212,33.3803706 198.879639,33.4868164 C197.549066,33.5932623 196.120939,33.7085769 194.595215,33.8327637 C193.069491,33.9569505 191.526049,34.0900058 189.964844,34.2319336 C190.000326,34.4093433 190.018066,34.6931947 190.018066,35.0834961 C190.018066,38.5252451 189.264086,41.5766469 187.756104,44.237793 C186.248121,46.8989391 184.243421,49.1431386 181.741943,50.970459 C179.240466,52.7977793 176.33986,54.1815545 173.040039,55.1218262 C169.740218,56.0620978 166.316261,56.5322266 162.768066,56.5322266 C160.213366,56.5322266 157.8095,56.1774124 155.556396,55.4677734 C153.303293,54.7581345 151.334074,53.7291734 149.648682,52.3808594 C147.963289,51.0325453 146.632736,49.3826595 145.656982,47.4311523 C144.681229,45.4796452 144.193359,43.244316 144.193359,40.7250977 C144.193359,38.7026266 144.601396,36.8398523 145.41748,35.1367188 C146.233565,33.4335852 147.34236,31.9167547 148.743896,30.5861816 C150.145433,29.2556086 151.80419,28.1290736 153.720215,27.206543 C155.63624,26.2840123 157.711903,25.574384 159.947266,25.0776367 C159.308591,24.7937811 158.643314,24.3946152 157.951416,23.880127 C157.259518,23.3656387 156.629723,22.7447139 156.062012,22.017334 C155.494301,21.289954 155.024172,20.4561408 154.651611,19.5158691 C154.279051,18.5755975 154.092773,17.5377661 154.092773,16.4023438 C154.092773,13.7057157 154.704828,11.3639422 155.928955,9.37695312 C157.153082,7.38996402 158.723135,5.74007818 160.63916,4.42724609 C162.555185,3.11441401 164.6752,2.13867507 166.999268,1.5 C169.323335,0.861324932 171.585275,0.541992188 173.785156,0.541992188 C175.701181,0.541992188 177.484123,0.763751038 179.134033,1.20727539 C180.783944,1.65079974 182.2032,2.27172452 183.391846,3.07006836 C184.580491,3.86841219 185.520748,4.84415114 186.212646,5.99731445 C186.904544,7.15047777 187.250488,8.41893839 187.250488,9.80273438 C187.250488,10.9736387 187.019859,12.0824329 186.558594,13.1291504 C186.097328,14.1758679 185.467533,15.0895143 184.669189,15.8701172 C183.870846,16.65072 182.930588,17.2627745 181.848389,17.7062988 C180.766189,18.1498232 179.586432,18.371582 178.309082,18.371582 C177.17366,18.371582 176.17131,18.2030453 175.302002,17.8659668 C174.432694,17.5288883 173.696455,17.120852 173.093262,16.6418457 C172.490069,16.1628394 172.02881,15.6660996 171.709473,15.1516113 C171.390135,14.6371231 171.230469,14.2024757 171.230469,13.8476562 C171.230469,13.2799451 171.416746,12.800946 171.789307,12.4106445 C172.161867,12.0203431 172.631996,11.8251953 173.199707,11.8251953 C173.590008,11.8251953 173.8916,11.9227692 174.104492,12.1179199 C174.317384,12.3130706 174.530272,12.5348295 174.743164,12.7832031 C175.097984,13.2089865 175.532631,13.6347635 176.047119,14.0605469 C176.561607,14.4863303 177.38655,14.6992188 178.521973,14.6992188 C179.302576,14.6992188 179.976722,14.5661634 180.544434,14.3000488 C181.112145,14.0339342 181.591144,13.6791201 181.981445,13.2355957 C182.371747,12.7920714 182.664468,12.2953315 182.859619,11.7453613 C183.05477,11.1953911 183.152344,10.6542995 183.152344,10.1220703 C183.152344,9.4479133 182.966066,8.77376639 182.593506,8.09960938 C182.220945,7.42545236 181.662113,6.82226829 180.916992,6.29003906 C180.171871,5.75780984 179.213873,5.33203285 178.042969,5.01269531 C176.872064,4.69335778 175.488289,4.53369141 173.891602,4.53369141 C172.294914,4.53369141 170.582936,4.75545026 168.755615,5.19897461 C166.928295,5.64249896 165.225187,6.31664587 163.64624,7.22143555 C162.067294,8.12622523 160.754481,9.29711196 159.707764,10.7341309 C158.661046,12.1711498 158.137695,13.8653874 158.137695,15.8168945 C158.137695,17.0942447 158.359454,18.1675575 158.802979,19.0368652 C159.246503,19.906173 159.858557,20.6246716 160.63916,21.1923828 C161.419763,21.760094 162.35115,22.212482 163.43335,22.5495605 C164.515549,22.8866391 165.713047,23.1793607 167.025879,23.4277344 C167.522626,23.5341802 167.992755,23.6317541 168.436279,23.720459 C168.879804,23.8091639 169.270099,23.9333488 169.607178,24.0930176 C169.944256,24.2526863 170.210367,24.4655748 170.405518,24.7316895 C170.600668,24.9978041 170.698242,25.3614886 170.698242,25.8227539 C170.698242,26.3904651 170.511965,26.8428531 170.139404,27.1799316 C169.766844,27.5170101 169.261234,27.6855469 168.622559,27.6855469 C167.983884,27.6855469 167.043626,27.7210283 165.801758,27.7919922 C164.55989,27.8629561 163.184985,28.0492335 161.677002,28.3508301 C160.169019,28.6524266 158.616707,29.0782036 157.02002,29.6281738 C155.423332,30.178144 153.977464,30.9409945 152.682373,31.916748 C151.387282,32.8925016 150.322839,34.0899994 149.489014,35.5092773 C148.655188,36.9285553 148.238281,38.649404 148.238281,40.671875 C148.238281,42.694346 148.619706,44.4595465 149.382568,45.9675293 C150.14543,47.4755121 151.183262,48.7173617 152.496094,49.6931152 C153.808926,50.6688688 155.343497,51.3962378 157.099854,51.8752441 C158.85621,52.3542504 160.745595,52.59375 162.768066,52.59375 C165.606622,52.59375 168.418524,52.2478062 171.203857,51.5559082 C173.98919,50.8640102 176.48176,49.8084381 178.681641,48.3891602 C180.881521,46.9698822 182.664463,45.1780707 184.030518,43.0136719 C185.396573,40.849273 186.07959,38.3123518 186.07959,35.402832 C186.07959,35.2609042 186.070719,35.1278489 186.052979,35.0036621 C186.035238,34.8794753 186.026367,34.7286793 186.026367,34.5512695 C184.110342,34.7286793 182.380623,34.897216 180.837158,35.0568848 C179.293693,35.2165535 178.078455,35.3318681 177.191406,35.402832 C176.907551,35.438314 176.668051,35.464925 176.4729,35.482666 C176.27775,35.500407 176.126954,35.5092773 176.020508,35.5092773 C175.417315,35.5092773 174.902834,35.3318703 174.477051,34.9770508 C174.051267,34.6222313 173.838379,34.1077508 173.838379,33.4335938 C173.838379,32.9368465 174.006916,32.5021991 174.343994,32.1296387 C174.681073,31.7570782 175.133461,31.5353194 175.701172,31.4643555 C176.730148,31.3579096 178.060701,31.215984 179.692871,31.0385742 C181.325041,30.8611645 183.107982,30.6926278 185.041748,30.532959 C186.975514,30.3732902 188.971344,30.2136238 191.029297,30.0539551 C193.08725,29.8942863 195.047598,29.7434903 196.9104,29.6015625 C198.773203,29.4596347 200.476311,29.3531905 202.019775,29.2822266 C203.56324,29.2112627 204.796219,29.1757812 205.71875,29.1757812 C207.705739,29.1757812 209.054033,29.3531883 209.763672,29.7080078 C210.473311,30.0628273 210.828125,30.63053 210.828125,31.4111328 L210.828125,31.4111328 Z" id="&amp;"></path>
                    <path d="M214.075195,20.5522461 C214.075195,21.405766 213.777591,22.130124 213.182373,22.7253418 C212.587155,23.3205596 211.862797,23.6181641 211.009277,23.6181641 C210.155757,23.6181641 209.431399,23.3205596 208.836182,22.7253418 C208.240964,22.130124 207.943359,21.405766 207.943359,20.5522461 C207.943359,20.1254861 208.021972,19.7268085 208.179199,19.3562012 C208.336427,18.9855939 208.555419,18.6599135 208.836182,18.3791504 C209.116945,18.0983873 209.442625,17.8793953 209.813232,17.722168 C210.18384,17.5649406 210.582517,17.4863281 211.009277,17.4863281 C211.436037,17.4863281 211.834715,17.5649406 212.205322,17.722168 C212.57593,17.8793953 212.90161,18.0983873 213.182373,18.3791504 C213.463136,18.6599135 213.682128,18.9855939 213.839355,19.3562012 C213.996583,19.7268085 214.075195,20.1254861 214.075195,20.5522461 L214.075195,20.5522461 Z M210.84082,48.1791992 C211.671879,47.2807572 212.525386,46.3317921 213.401367,45.3322754 C214.277348,44.3327587 215.119625,43.333257 215.928223,42.3337402 C216.73682,41.3342235 217.478024,40.3459522 218.151855,39.3688965 C218.825687,38.3918408 219.353514,37.4653364 219.735352,36.5893555 C219.937501,36.0952124 220.319333,35.8481445 220.880859,35.8481445 C221.262697,35.8481445 221.571532,35.9772936 221.807373,36.2355957 C222.043214,36.4938978 222.161133,36.7802719 222.161133,37.0947266 C222.161133,37.274415 222.127442,37.4428703 222.060059,37.6000977 C221.543454,38.7680722 220.835942,39.9809507 219.9375,41.2387695 C219.039058,42.4965883 218.067632,43.7487731 217.023193,44.9953613 C215.978755,46.2419496 214.911871,47.4548281 213.82251,48.6340332 C212.733149,49.8132383 211.739262,50.9081981 210.84082,51.9189453 C210.863281,53.7158293 210.891357,55.4789953 210.925049,57.2084961 C210.95874,58.9379969 210.975586,60.577629 210.975586,62.1274414 C210.975586,68.3042301 210.369147,72.8862155 209.15625,75.8735352 C207.943353,78.8608548 206.135266,80.3544922 203.731934,80.3544922 C202.900875,80.3544922 202.137211,80.1748065 201.440918,79.8154297 C200.744625,79.4560529 200.149417,78.9394565 199.655273,78.265625 C199.16113,77.5917935 198.773683,76.7607471 198.49292,75.7724609 C198.212157,74.7841747 198.071777,73.6611391 198.071777,72.4033203 C198.071777,71.0107352 198.257078,69.4890219 198.627686,67.8381348 C198.998293,66.1872476 199.593502,64.4409272 200.41333,62.5991211 C201.233158,60.757315 202.294427,58.8537696 203.597168,56.8884277 C204.899909,54.9230859 206.472159,52.9296976 208.313965,50.9082031 C208.313965,48.9765528 208.325195,47.0505467 208.347656,45.130127 C208.370117,43.2097072 208.409424,41.3679287 208.465576,39.6047363 C208.521729,37.8415439 208.600341,36.1906815 208.701416,34.6520996 C208.802491,33.1135177 208.920409,31.7490294 209.055176,30.5585938 C209.100098,30.221678 209.240477,29.9521494 209.476318,29.75 C209.712159,29.5478506 209.998533,29.4467773 210.335449,29.4467773 C210.672365,29.4467773 210.964354,29.5703113 211.211426,29.8173828 C211.458497,30.0644544 211.582031,30.367674 211.582031,30.7270508 C211.582031,30.8618171 211.542725,31.299801 211.464111,32.0410156 C211.385498,32.7822303 211.30127,33.8715748 211.211426,35.309082 C211.121582,36.7465892 211.037354,38.5266007 210.95874,40.6491699 C210.880127,42.7717391 210.84082,45.2817238 210.84082,48.1791992 L210.84082,48.1791992 Z M212.154785,20.5522461 C212.154785,20.2377914 212.042482,19.9626477 211.817871,19.7268066 C211.593261,19.4909656 211.323732,19.3730469 211.009277,19.3730469 C210.694823,19.3730469 210.419679,19.4909656 210.183838,19.7268066 C209.947997,19.9626477 209.830078,20.2377914 209.830078,20.5522461 C209.830078,20.8667008 209.947997,21.1362293 210.183838,21.3608398 C210.419679,21.5854503 210.694823,21.6977539 211.009277,21.6977539 C211.323732,21.6977539 211.593261,21.5854503 211.817871,21.3608398 C212.042482,21.1362293 212.154785,20.8667008 212.154785,20.5522461 L212.154785,20.5522461 Z M208.44873,61.925293 C208.44873,60.7797794 208.4375,59.6342831 208.415039,58.4887695 C208.392578,57.343256 208.370117,56.0966864 208.347656,54.7490234 C206.955071,56.4336022 205.770269,58.0956949 204.793213,59.7353516 C203.816157,61.3750082 203.013187,62.9472581 202.384277,64.4521484 C201.755368,65.9570388 201.300539,67.383294 201.019775,68.730957 C200.739012,70.07862 200.598633,71.3027289 200.598633,72.4033203 C200.598633,73.0322297 200.643554,73.6667448 200.733398,74.3068848 C200.823243,74.9470247 200.986083,75.5310032 201.221924,76.0588379 C201.457765,76.5866726 201.77783,77.0134261 202.182129,77.3391113 C202.586428,77.6647966 203.103024,77.8276367 203.731934,77.8276367 C203.979005,77.8276367 204.270994,77.7714849 204.60791,77.6591797 C204.944826,77.5468744 205.287352,77.3054218 205.635498,76.9348145 C205.983644,76.5642071 206.32617,76.0307652 206.663086,75.3344727 C207.000002,74.6381801 207.303221,73.7004453 207.572754,72.5212402 C207.842287,71.3420351 208.055663,69.887704 208.212891,68.1582031 C208.370118,66.4287023 208.44873,64.3510863 208.44873,61.925293 L208.44873,61.925293 Z M245.778809,37.6000977 C245.688964,37.7797861 245.503664,38.156003 245.2229,38.7287598 C244.942137,39.3015165 244.582766,39.9584924 244.144775,40.699707 C243.706785,41.4409217 243.195804,42.2158163 242.611816,43.0244141 C242.027829,43.8330119 241.376468,44.5742154 240.657715,45.2480469 C239.938961,45.9218784 239.164067,46.477781 238.333008,46.9157715 C237.501949,47.353762 236.625981,47.5727539 235.705078,47.5727539 C234.402337,47.5727539 233.307377,47.1572307 232.420166,46.3261719 C231.532955,45.495113 230.887209,44.4506899 230.48291,43.1928711 C229.719234,44.4731509 228.809576,45.4894982 227.753906,46.2419434 C226.698237,46.9943885 225.642583,47.3706055 224.586914,47.3706055 C223.755855,47.3706055 223.003421,47.2189957 222.32959,46.9157715 C221.655758,46.6125473 221.08301,46.1857938 220.611328,45.635498 C220.139646,45.0852023 219.774659,44.4394568 219.516357,43.6982422 C219.258055,42.9570275 219.128906,42.1484419 219.128906,41.2724609 C219.128906,39.5204991 219.426511,37.976325 220.021729,36.6398926 C220.616946,35.3034601 221.374995,34.1860396 222.295898,33.2875977 C223.216801,32.3891557 224.233149,31.7153343 225.344971,31.2661133 C226.456793,30.8168923 227.529292,30.5922852 228.5625,30.5922852 C229.258793,30.5922852 229.898923,30.6877432 230.48291,30.8786621 C231.066897,31.069581 231.566648,31.2773426 231.982178,31.5019531 C232.397707,31.7265636 232.717772,31.9343252 232.942383,32.1252441 C233.166993,32.3161631 233.290527,32.4228515 233.312988,32.4453125 C233.56006,32.7373061 233.683594,33.0405258 233.683594,33.3549805 C233.683594,33.6918962 233.56006,33.9895007 233.312988,34.2478027 C233.065917,34.5061048 232.773927,34.6352539 232.437012,34.6352539 C232.077635,34.6352539 231.774415,34.51172 231.527344,34.2646484 C231.482422,34.2197263 231.381348,34.1354987 231.224121,34.0119629 C231.066894,33.8884271 230.853517,33.759278 230.583984,33.6245117 C230.314452,33.4897454 229.994387,33.3718267 229.623779,33.270752 C229.253172,33.1696772 228.832034,33.1191406 228.360352,33.1191406 C227.664059,33.1191406 226.922855,33.2763656 226.136719,33.5908203 C225.350582,33.905275 224.631839,34.3937955 223.980469,35.0563965 C223.329098,35.7189975 222.784426,36.5500438 222.346436,37.5495605 C221.908445,38.5490773 221.689453,39.7338799 221.689453,41.1040039 C221.689453,41.5307639 221.734375,41.9631326 221.824219,42.401123 C221.914063,42.8391135 222.071288,43.2377912 222.295898,43.597168 C222.520509,43.9565448 222.823729,44.248534 223.205566,44.4731445 C223.587404,44.697755 224.059079,44.8100586 224.620605,44.8100586 C225.024904,44.8100586 225.490964,44.6752943 226.018799,44.4057617 C226.546633,44.1362291 227.052,43.7207059 227.534912,43.1591797 C228.017825,42.5976534 228.455809,41.890141 228.848877,41.0366211 C229.241945,40.1831012 229.517089,39.1723691 229.674316,38.0043945 C229.719239,37.6899398 229.865233,37.4260265 230.112305,37.2126465 C230.359376,36.9992665 230.651366,36.8925781 230.988281,36.8925781 C231.302736,36.8925781 231.57788,37.016112 231.813721,37.2631836 C232.049562,37.5102551 232.178711,37.7910141 232.201172,38.1054688 C232.223633,38.5322287 232.268554,39.1330528 232.335938,39.907959 C232.403321,40.6828652 232.55493,41.4521446 232.790771,42.2158203 C233.026613,42.979496 233.380369,43.642087 233.852051,44.2036133 C234.323733,44.7651395 234.975094,45.0458984 235.806152,45.0458984 C236.345218,45.0458984 236.878659,44.8999038 237.406494,44.6079102 C237.934329,44.3159165 238.450925,43.9284692 238.956299,43.4455566 C239.461672,42.9626441 239.944578,42.4123566 240.405029,41.7946777 C240.865481,41.1769989 241.286619,40.5537141 241.668457,39.9248047 C242.050295,39.2958953 242.387206,38.689456 242.679199,38.1054688 C242.971193,37.5214815 243.218261,37.0161154 243.42041,36.5893555 C243.532715,36.3422839 243.695556,36.1513679 243.908936,36.0166016 C244.122316,35.8818353 244.352538,35.8144531 244.599609,35.8144531 C244.981447,35.8144531 245.290282,35.9548326 245.526123,36.2355957 C245.761964,36.5163588 245.879883,36.8139633 245.879883,37.128418 C245.879883,37.2856453 245.846192,37.4428703 245.778809,37.6000977 L245.778809,37.6000977 Z M251.236816,44.0014648 C251.573732,43.3276333 252.006101,42.4909718 252.533936,41.4914551 C253.06177,40.4919384 253.612058,39.4868215 254.184814,38.4760742 C254.757571,37.465327 255.319089,36.5107467 255.869385,35.6123047 C256.41968,34.7138627 256.88574,34.028811 257.267578,33.5571289 C257.918949,32.7709922 258.59277,32.2094743 259.289062,31.8725586 C259.985355,31.5356428 260.625485,31.3671875 261.209473,31.3671875 C261.79346,31.3671875 262.293211,31.4907214 262.70874,31.737793 C263.12427,31.9848645 263.466796,32.31616 263.736328,32.7316895 C264.005861,33.1472189 264.208007,33.6301242 264.342773,34.1804199 C264.47754,34.7307156 264.544922,35.3203094 264.544922,35.9492188 C264.544922,36.3085955 264.528076,36.7802705 264.494385,37.3642578 C264.460693,37.9482451 264.427002,38.5771451 264.393311,39.2509766 C264.359619,39.9248081 264.325928,40.6210902 264.292236,41.3398438 C264.258545,42.0585973 264.230469,42.7324187 264.208008,43.3613281 C264.544924,42.6874966 264.926756,41.9406779 265.353516,41.1208496 C265.780276,40.3010213 266.212644,39.4868204 266.650635,38.6782227 C267.088625,37.8696249 267.509764,37.1115758 267.914062,36.4040527 C268.318361,35.6965297 268.688963,35.1181663 269.025879,34.6689453 C269.991704,33.3437434 270.895748,32.4565452 271.738037,32.0073242 C272.580326,31.5581032 273.327145,31.3334961 273.978516,31.3334961 C274.742191,31.3334961 275.371091,31.4738755 275.865234,31.7546387 C276.359377,32.0354018 276.746825,32.3947732 277.027588,32.8327637 C277.308351,33.2707541 277.504882,33.7592746 277.617188,34.2983398 C277.729493,34.837405 277.785645,35.3540014 277.785645,35.8481445 C277.785645,36.6118202 277.729493,37.4091755 277.617188,38.2402344 C277.504882,39.0712932 277.44873,40.0595646 277.44873,41.2050781 C277.44873,41.6767602 277.471191,42.1484351 277.516113,42.6201172 C277.561035,43.0917992 277.656493,43.5073224 277.80249,43.8666992 C277.948487,44.226076 278.178709,44.5180653 278.493164,44.7426758 C278.807619,44.9672863 279.234372,45.0795898 279.773438,45.0795898 C280.357425,45.0795898 280.930173,44.92798 281.491699,44.6247559 C282.053225,44.3215317 282.592283,43.922854 283.108887,43.4287109 C283.625491,42.9345678 284.114011,42.37305 284.574463,41.7441406 C285.034914,41.1152312 285.456053,40.4863313 285.837891,39.8574219 C286.219728,39.2285125 286.556639,38.6276884 286.848633,38.0549316 C287.140626,37.4821749 287.376464,36.9936544 287.556152,36.5893555 C287.668458,36.3422839 287.825683,36.1513679 288.027832,36.0166016 C288.229981,35.8818353 288.454589,35.8144531 288.70166,35.8144531 C289.083498,35.8144531 289.392333,35.9548326 289.628174,36.2355957 C289.864015,36.5163588 289.981934,36.8139633 289.981934,37.128418 C289.981934,37.2856453 289.948243,37.4428703 289.880859,37.6000977 C289.791015,37.7797861 289.611329,38.156003 289.341797,38.7287598 C289.072264,39.3015165 288.712893,39.9528772 288.263672,40.6828613 C287.814451,41.4128454 287.292239,42.1821249 286.697021,42.9907227 C286.101804,43.7993204 285.444828,44.5461392 284.726074,45.2312012 C284.007321,45.9162632 283.232426,46.477781 282.401367,46.9157715 C281.570308,47.353762 280.694341,47.5727539 279.773438,47.5727539 C278.785151,47.5727539 277.982181,47.3986834 277.364502,47.0505371 C276.746823,46.7023908 276.252687,46.236331 275.88208,45.6523438 C275.511473,45.0683565 275.25879,44.3945351 275.124023,43.6308594 C274.989257,42.8671837 274.921875,42.0698284 274.921875,41.2387695 C274.921875,40.1381781 274.978027,39.1218308 275.090332,38.1896973 C275.202637,37.2575637 275.258789,36.5332057 275.258789,36.0166016 C275.258789,35.4550753 275.208252,35.0283218 275.107178,34.7363281 C275.006103,34.4443345 274.882569,34.2365729 274.736572,34.1130371 C274.590575,33.9895013 274.450196,33.9221192 274.31543,33.9108887 C274.180663,33.8996581 274.07959,33.894043 274.012207,33.894043 C273.473142,33.894043 272.906009,34.1916474 272.310791,34.7868652 C271.715573,35.3820831 271.103519,36.1738232 270.474609,37.1621094 C269.8457,38.1503956 269.199954,39.2734312 268.537354,40.53125 C267.874753,41.7890688 267.206546,43.0693294 266.532715,44.3720703 C266.150877,45.0908239 265.830812,45.6860328 265.57251,46.1577148 C265.314208,46.6293969 265.06714,46.9999987 264.831299,47.2695312 C264.595458,47.5390638 264.365235,47.7299799 264.140625,47.8422852 C263.916015,47.9545904 263.668947,48.0107422 263.399414,48.0107422 C262.815427,48.0107422 262.371828,47.8085958 262.068604,47.4042969 C261.765379,46.999998 261.61377,46.4721712 261.61377,45.8208008 C261.61377,45.483885 261.625,45.0346708 261.647461,44.4731445 C261.669922,43.9116183 261.692383,43.2939487 261.714844,42.6201172 C261.737305,41.9462857 261.770996,41.2500036 261.815918,40.53125 C261.86084,39.8124964 261.894531,39.1218295 261.916992,38.4592285 C261.939453,37.7966275 261.961914,37.2070338 261.984375,36.6904297 C262.006836,36.1738255 262.018066,35.7807631 262.018066,35.5112305 C262.018066,34.9272432 261.916993,34.5061048 261.714844,34.2478027 C261.512694,33.9895007 261.276857,33.8603516 261.007324,33.8603516 C260.760253,33.8603516 260.485109,33.9501944 260.181885,34.1298828 C259.878661,34.3095712 259.524904,34.6577123 259.120605,35.1743164 C258.806151,35.5786153 258.407473,36.168209 257.924561,36.9431152 C257.441648,37.7180215 256.930667,38.5771437 256.391602,39.5205078 C255.852536,40.4638719 255.319094,41.4296826 254.79126,42.4179688 C254.263425,43.4062549 253.808596,44.2934531 253.426758,45.0795898 C252.955076,46.0229539 252.483401,46.6686994 252.011719,47.0168457 C251.540037,47.364992 251.079592,47.5390625 250.630371,47.5390625 C249.979001,47.5390625 249.496095,47.3425313 249.181641,46.9494629 C248.867186,46.5563945 248.709961,46.0341829 248.709961,45.3828125 C248.709961,45.3154294 248.726806,44.9111365 248.760498,44.1699219 C248.79419,43.4287072 248.833496,42.5246635 248.878418,41.4577637 C248.92334,40.3908638 248.973877,39.2509826 249.030029,38.0380859 C249.086182,36.8251892 249.136719,35.6909232 249.181641,34.6352539 C249.204102,34.0737277 249.181641,33.5571313 249.114258,33.0854492 C249.046875,32.6137672 248.957032,32.3330083 248.844727,32.2431641 C248.665038,32.2880862 248.311282,32.7036094 247.783447,33.4897461 C247.255613,34.2758828 246.587406,35.6459863 245.778809,37.6000977 C245.666503,37.8471692 245.498048,38.0380853 245.273438,38.1728516 C245.048827,38.3076179 244.81299,38.375 244.565918,38.375 C244.18408,38.375 243.88086,38.2458509 243.65625,37.9875488 C243.43164,37.7292468 243.319336,37.4316423 243.319336,37.0947266 C243.319336,36.9374992 243.353027,36.7690439 243.42041,36.5893555 C244.431157,34.1860231 245.396968,32.417242 246.317871,31.282959 C247.238774,30.148676 248.137203,29.581543 249.013184,29.581543 C249.529788,29.581543 249.962156,29.6994617 250.310303,29.9353027 C250.658449,30.1711438 250.933593,30.4743634 251.135742,30.8449707 C251.337892,31.215578 251.483886,31.6367164 251.57373,32.1083984 C251.663575,32.5800805 251.708496,33.0405251 251.708496,33.4897461 C251.708496,35.4887795 251.657959,37.3193276 251.556885,38.9814453 C251.45581,40.643563 251.349122,42.3168861 251.236816,44.0014648 L251.236816,44.0014648 Z M291.599121,43.2939453 C292.070803,43.9453158 292.677242,44.4675273 293.418457,44.8605957 C294.159672,45.2536641 295.069331,45.4501953 296.147461,45.4501953 C297.248052,45.4501953 298.247554,45.1862819 299.145996,44.6584473 C300.044438,44.1306126 300.864254,43.4399457 301.605469,42.5864258 C302.346683,41.7329059 303.009274,40.7783256 303.593262,39.7226562 C304.177249,38.6669869 304.705076,37.6113334 305.176758,36.5556641 C305.289063,36.3085925 305.446288,36.1232916 305.648438,35.9997559 C305.850587,35.8762201 306.075194,35.8144531 306.322266,35.8144531 C306.704103,35.8144531 307.012938,35.9492174 307.248779,36.21875 C307.48462,36.4882826 307.602539,36.7802719 307.602539,37.0947266 C307.602539,37.2070318 307.591309,37.3024898 307.568848,37.3811035 C307.546387,37.4597172 307.512696,37.5439449 307.467773,37.6337891 C305.917961,41.0478686 304.227792,43.6196203 302.397217,45.3491211 C300.566641,47.0786219 298.49464,47.9658201 296.181152,48.0107422 C294.698723,48.0107422 293.418462,47.7243681 292.340332,47.1516113 C291.262202,46.5788546 290.375003,45.837651 289.678711,44.9279785 C288.982418,44.018306 288.465822,42.9907284 288.128906,41.8452148 C287.791991,40.6997013 287.623535,39.5542049 287.623535,38.4086914 C287.623535,37.2631779 287.763915,36.2075244 288.044678,35.2416992 C288.325441,34.2758741 288.729734,33.4335973 289.257568,32.7148438 C289.785403,31.9960902 290.414303,31.4345723 291.144287,31.0302734 C291.874271,30.6259745 292.677242,30.4238281 293.553223,30.4238281 C294.069827,30.4238281 294.580808,30.5305165 295.086182,30.7438965 C295.591555,30.9572765 296.046385,31.2604961 296.450684,31.6535645 C296.854982,32.0466328 297.180663,32.523923 297.427734,33.0854492 C297.674806,33.6469755 297.79834,34.2871058 297.79834,35.0058594 C297.79834,35.9267624 297.641115,36.7914999 297.32666,37.6000977 C297.012205,38.4086954 296.579837,39.1611293 296.029541,39.8574219 C295.479245,40.5537144 294.822269,41.1938447 294.058594,41.777832 C293.294918,42.3618193 292.475102,42.8671854 291.599121,43.2939453 L291.599121,43.2939453 Z M290.588379,41.1040039 C291.284671,40.8120103 291.919187,40.4414085 292.491943,39.9921875 C293.0647,39.5429665 293.553221,39.0488308 293.95752,38.5097656 C294.361818,37.9707004 294.676268,37.4035674 294.900879,36.8083496 C295.125489,36.2131318 295.237793,35.6123077 295.237793,35.0058594 C295.237793,34.3320279 295.069338,33.8210467 294.732422,33.4729004 C294.395506,33.1247541 294.002444,32.9506836 293.553223,32.9506836 C292.946774,32.9506836 292.430178,33.1191389 292.003418,33.4560547 C291.576658,33.7929704 291.228517,34.2309543 290.958984,34.7700195 C290.689452,35.3090847 290.492921,35.9099088 290.369385,36.5725098 C290.245849,37.2351107 290.184082,37.8920866 290.184082,38.543457 C290.184082,38.9477559 290.223388,39.3745095 290.302002,39.8237305 C290.380616,40.2729515 290.476074,40.699705 290.588379,41.1040039 L290.588379,41.1040039 Z M308.916504,34.5341797 C308.781738,34.8935565 308.618897,35.2978493 308.427979,35.7470703 C308.23706,36.1962913 308.018068,36.6679663 307.770996,37.1621094 C307.568847,37.5439472 307.361085,37.8415517 307.147705,38.0549316 C306.934325,38.2683116 306.659181,38.375 306.322266,38.375 C305.940428,38.375 305.637208,38.2570813 305.412598,38.0212402 C305.187987,37.7853992 305.075684,37.5102555 305.075684,37.1958008 C305.075684,37.0834955 305.086914,36.9880375 305.109375,36.9094238 C305.131836,36.8308102 305.187988,36.7016611 305.277832,36.5219727 C305.861819,35.3989202 306.294188,34.416264 306.574951,33.5739746 C306.855714,32.7316852 307.085937,31.8501023 307.265625,30.9291992 C307.108398,30.4125951 306.996094,29.9746112 306.928711,29.6152344 C306.861328,29.2558576 306.827637,28.8852558 306.827637,28.503418 C306.827637,27.7622033 306.984862,27.1613793 307.299316,26.7009277 C307.613771,26.2404762 308.051755,26.0102539 308.613281,26.0102539 C309.129885,26.0102539 309.539793,26.234861 309.843018,26.684082 C310.146242,27.133303 310.297852,27.6835905 310.297852,28.3349609 C310.297852,28.6943377 310.26416,29.0537091 310.196777,29.4130859 C310.129394,29.7724627 310.039551,30.221677 309.927246,30.7607422 C310.44385,32.041022 310.960447,33.175288 311.477051,34.1635742 C311.993655,35.1518604 312.4541,36.0559041 312.858398,36.8757324 C313.262697,37.6955607 313.593993,38.4648402 313.852295,39.1835938 C314.110597,39.9023473 314.239746,40.6210902 314.239746,41.3398438 C314.239746,42.2832078 314.04883,43.1816364 313.666992,44.0351562 C313.285154,44.8886761 312.656254,45.607419 311.780273,46.1914062 C311.892579,46.2138673 312.004882,46.2250977 312.117188,46.2250977 L312.454102,46.2250977 C313.734381,46.2250977 314.913569,45.9331084 315.991699,45.3491211 C317.06983,44.7651338 318.041255,44.0070847 318.906006,43.0749512 C319.770756,42.1428176 320.540036,41.1096248 321.213867,39.9753418 C321.887699,38.8410588 322.471677,37.712408 322.96582,36.5893555 C323.190431,36.0727513 323.504881,35.8144531 323.90918,35.8144531 C324.291018,35.8144531 324.588622,35.9492174 324.802002,36.21875 C325.015382,36.4882826 325.12207,36.7802719 325.12207,37.0947266 C325.12207,37.274415 325.088379,37.4428703 325.020996,37.6000977 C324.773925,38.206546 324.453859,38.8972129 324.060791,39.6721191 C323.667723,40.4470254 323.196048,41.2443807 322.645752,42.064209 C322.095456,42.8840373 321.460941,43.6870078 320.742188,44.4731445 C320.023434,45.2592813 319.220463,45.9611786 318.333252,46.5788574 C317.44604,47.1965363 316.474615,47.690672 315.418945,48.0612793 C314.363276,48.4318866 313.206549,48.6171875 311.94873,48.6171875 C310.44384,48.6171875 309.045661,48.3532741 307.75415,47.8254395 C306.46264,47.2976048 305.412602,46.4272522 304.604004,45.2143555 C304.469238,45.012206 304.401855,44.7988292 304.401855,44.5742188 C304.401855,44.237303 304.531005,43.9396986 304.789307,43.6813965 C305.047609,43.4230944 305.345213,43.2939453 305.682129,43.2939453 C306.041506,43.2939453 306.344725,43.4174792 306.591797,43.6645508 C306.614258,43.7094729 306.69287,43.7824702 306.827637,43.8835449 C306.962403,43.9846196 307.125243,44.0969232 307.316162,44.220459 C307.507081,44.3439948 307.731688,44.4506831 307.98999,44.5405273 C308.248292,44.6303715 308.512206,44.675293 308.781738,44.675293 C309.320803,44.675293 309.775633,44.5629894 310.14624,44.3383789 C310.516848,44.1137684 310.814452,43.8386247 311.039062,43.5129395 C311.263673,43.1872542 311.426513,42.8391132 311.527588,42.4685059 C311.628663,42.0978985 311.679199,41.7778334 311.679199,41.5083008 C311.679199,40.9467745 311.589356,40.3852567 311.409668,39.8237305 C311.22998,39.2622042 310.999757,38.7006864 310.718994,38.1391602 C310.438231,37.5776339 310.135011,36.9992706 309.809326,36.4040527 C309.483641,35.8088349 309.186037,35.1855501 308.916504,34.5341797 L308.916504,34.5341797 Z" id="james"></path>
                </g>
                <path d="M76.7275391,5.22753906 L76.6845703,8.06347656 C76.6845703,9.40267597 76.7991525,10.5270137 77.0283203,11.4365234 L77.0283203,11.4472656 C76.9280594,11.9127627 76.8779297,12.4713509 76.8779297,13.1230469 L77.0605469,17.0761719 C77.0605469,17.7923213 76.849286,18.1503906 76.4267578,18.1503906 C76.183267,18.1503906 76.0042323,18.0358084 75.8896484,17.8066406 C75.7750645,17.5774728 75.7177734,17.3232436 75.7177734,17.0439453 L75.8896484,13.53125 C75.8896484,12.7721316 75.8395187,11.6298904 75.7392578,10.1044922 C75.6389969,8.57909394 75.5888672,7.43685275 75.5888672,6.67773438 L75.6210938,4.75488281 C75.6210938,3.70214317 75.5530606,3.01823074 75.4169922,2.703125 L74.2246094,2.82128906 C74.0384105,2.82128906 73.8719083,2.76578832 73.7250977,2.65478516 C73.578287,2.543782 73.5048828,2.40055426 73.5048828,2.22509766 C73.5048828,2.04964105 73.6803368,1.89925193 74.03125,1.77392578 C74.3821632,1.64859963 74.8118464,1.55729195 75.3203125,1.5 C76.2011763,1.39973908 76.9423798,1.34960938 77.5439453,1.34960938 C77.7229827,1.34960938 77.8859042,1.40869082 78.0327148,1.52685547 C78.1795255,1.64502012 78.2529297,1.7936189 78.2529297,1.97265625 C78.2529297,2.1516936 78.1884772,2.29313099 78.0595703,2.39697266 C77.9306634,2.50081432 77.7731129,2.55273438 77.5869141,2.55273438 L76.8027344,2.50976562 C76.7024735,2.50976562 76.6272789,2.51334632 76.5771484,2.52050781 C76.6774094,3.36556412 76.7275391,4.26789885 76.7275391,5.22753906 L76.7275391,5.22753906 Z M88.0439453,9.1484375 L87.8505859,1.9296875 C87.8434244,1.82226509 87.9007155,1.70410221 88.0224609,1.57519531 C88.1442063,1.44628842 88.282063,1.38183594 88.4360352,1.38183594 C88.5900073,1.38183594 88.727864,1.5107409 88.8496094,1.76855469 C88.9713548,2.02636848 89.0322266,2.44889029 89.0322266,3.03613281 C89.0322266,4.64746899 89.1002597,7.06622736 89.2363281,10.2924805 C89.3723965,13.5187336 89.4404297,15.9339113 89.4404297,17.5380859 C89.4404297,17.7314463 89.3795579,17.9122713 89.2578125,18.0805664 C89.1360671,18.2488615 88.9820973,18.3330078 88.7958984,18.3330078 C88.4235007,18.3330078 88.2373047,18.0895207 88.2373047,17.6025391 C88.2373047,14.8668483 88.1764329,12.2815877 88.0546875,9.84667969 C87.6608053,9.77506475 87.2991553,9.73925781 86.9697266,9.73925781 C86.6402978,9.73925781 86.346681,9.79654891 86.0888672,9.91113281 C86.0960287,10.7132202 86.1586908,11.9431883 86.2768555,13.6010742 C86.3950201,15.2589601 86.4541016,16.5139931 86.4541016,17.3662109 C86.4541016,17.5094408 86.4111332,17.6419265 86.3251953,17.7636719 C86.2392574,17.8854173 86.1246752,17.9462891 85.9814453,17.9462891 C85.745116,17.9462891 85.5678717,17.84782 85.449707,17.6508789 C85.3315424,17.4539378 85.2563478,16.9347373 85.2241211,16.0932617 C85.1918944,15.2517862 85.1722006,14.3297576 85.1650391,13.3271484 C85.1578776,12.3245393 85.1471355,11.7265635 85.1328125,11.5332031 C84.8678372,7.72328824 84.7353516,4.47201867 84.7353516,1.77929688 L84.7353516,1.61816406 C84.756836,1.38899625 84.8821603,1.27441406 85.1113281,1.27441406 C85.5625023,1.27441406 85.8203122,1.42838388 85.8847656,1.73632812 C85.8346352,2.2591172 85.8095703,2.81054397 85.8095703,3.390625 L85.9599609,7.91308594 L85.9384766,8.74023438 C85.9384766,8.94791771 85.9527993,9.13769445 85.9814453,9.30957031 L88.0439453,9.1484375 Z M98.9199219,9.94335938 L98.3720703,9.921875 C98.2001945,9.921875 98.0712895,9.9755854 97.9853516,10.0830078 L97.9853516,16.8720703 C98.7373084,16.8291013 99.1240233,16.8076172 99.1455078,16.8076172 C99.9619181,16.8076172 100.370117,17.0009746 100.370117,17.3876953 L100.370117,17.4628906 C100.269856,17.6634125 100.099773,17.8173823 99.8598633,17.9248047 C99.6199532,18.0322271 99.4104827,18.0930989 99.2314453,18.1074219 C99.052408,18.1217449 98.8160822,18.1289062 98.5224609,18.1289062 L97.8349609,18.1289062 C97.2763644,18.1289062 96.9326178,18.0214854 96.8037109,17.8066406 C96.746419,17.7063797 96.7177734,17.5738941 96.7177734,17.4091797 L96.7177734,1.53222656 L98.6191406,1.33886719 C98.8411469,1.33886719 99.0649403,1.40511001 99.2905273,1.53759766 C99.5161144,1.6700853 99.6289062,1.84374893 99.6289062,2.05859375 C99.6289062,2.49544489 99.2959018,2.71386719 98.6298828,2.71386719 L97.9960938,2.69238281 C97.8886713,2.69238281 97.8098961,2.69596351 97.7597656,2.703125 L97.9316406,6.33398438 C97.9316406,6.62760563 97.9137372,7.05549849 97.8779297,7.61767578 C97.8421222,8.17985307 97.8242188,8.58984246 97.8242188,8.84765625 C97.9029952,8.83333326 98.010416,8.80826841 98.1464844,8.77246094 C98.4472671,8.6936845 98.6818025,8.65429688 98.8500977,8.65429688 C99.0183928,8.65429688 99.1687819,8.71516866 99.3012695,8.83691406 C99.4337572,8.95865946 99.5,9.10546789 99.5,9.27734375 C99.5,9.44921961 99.4462896,9.60318942 99.3388672,9.73925781 C99.2314448,9.8753262 99.0917977,9.94335938 98.9199219,9.94335938 L98.9199219,9.94335938 Z M117.352539,12.5966797 C117.889651,8.2997832 118.158203,5.4961003 118.158203,4.18554688 L118.158203,3.76660156 C118.158203,3.60904869 118.217285,3.45686922 118.335449,3.31005859 C118.453614,3.16324796 118.58789,3.08984375 118.738281,3.08984375 C119.332685,3.08984375 119.629883,3.30468535 119.629883,3.734375 L119.629883,4.06738281 C119.629883,5.49252015 119.919919,7.54783813 120.5,10.2333984 C120.764975,11.4365295 120.951171,12.3746711 121.058594,13.0478516 C121.13737,12.2386027 121.280598,11.067716 121.488281,9.53515625 C121.939455,6.19789998 122.165039,3.62696215 122.165039,1.82226562 C122.165039,1.49999839 122.218749,1.26546297 122.326172,1.11865234 C122.433594,0.971841714 122.609048,0.8984375 122.852539,0.8984375 C123.09603,0.8984375 123.287597,0.955728594 123.427246,1.0703125 C123.566895,1.18489641 123.636719,1.33170483 123.636719,1.51074219 C123.636719,1.68977954 123.561524,1.85449144 123.411133,2.00488281 C123.189126,3.20801383 122.993979,5.0019412 122.825684,7.38671875 C122.657388,9.7714963 122.494467,11.4383091 122.336914,12.387207 C122.179361,13.336105 122.075521,13.9895815 122.025391,14.3476562 C121.839192,15.5651103 121.746094,16.6285762 121.746094,17.5380859 C121.746094,17.7600923 121.690593,17.9427076 121.57959,18.0859375 C121.468587,18.2291674 121.314617,18.3007812 121.117676,18.3007812 C120.920735,18.3007812 120.757813,18.1826184 120.628906,17.9462891 C120.499999,17.7099598 120.39974,17.3966491 120.328125,17.0063477 C120.25651,16.6160462 120.201009,16.2436541 120.161621,15.8891602 C120.122233,15.5346662 120.090007,15.1658548 120.064941,14.7827148 C120.039876,14.3995749 120.000489,13.9985373 119.946777,13.5795898 C119.893066,13.1606424 119.722983,12.2511463 119.436523,10.8510742 C119.150064,9.45100211 118.985352,8.63639437 118.942383,8.40722656 C118.405271,12.5250857 118.136719,15.6223854 118.136719,17.6992188 C118.136719,17.8567716 118.070476,17.998209 117.937988,18.1235352 C117.805501,18.2488613 117.660483,18.3115234 117.50293,18.3115234 C116.965818,18.3115234 116.697266,17.7529353 116.697266,16.6357422 C116.697266,15.9482388 116.394697,13.4363824 115.789551,9.10009766 C115.184405,4.76381295 114.79948,2.3916036 114.634766,1.98339844 C114.820964,1.63248522 115.075194,1.45703125 115.397461,1.45703125 C115.819989,1.45703125 116.124348,2.00845803 116.310547,3.11132812 C116.396485,3.6269557 116.450195,4.27148051 116.47168,5.04492188 C116.493164,5.81836324 116.516439,6.34830586 116.541504,6.63476562 C116.566569,6.92122539 116.613118,7.35448929 116.681152,7.93457031 C116.749187,8.51465134 116.815429,9.01236771 116.879883,9.42773438 C117.023113,10.3730516 117.180663,11.4293561 117.352539,12.5966797 L117.352539,12.5966797 Z M132.665039,9.94335938 L132.117188,9.921875 C131.945312,9.921875 131.816407,9.9755854 131.730469,10.0830078 L131.730469,16.8720703 C132.482426,16.8291013 132.869141,16.8076172 132.890625,16.8076172 C133.707035,16.8076172 134.115234,17.0009746 134.115234,17.3876953 L134.115234,17.4628906 C134.014973,17.6634125 133.844891,17.8173823 133.60498,17.9248047 C133.36507,18.0322271 133.1556,18.0930989 132.976562,18.1074219 C132.797525,18.1217449 132.561199,18.1289062 132.267578,18.1289062 L131.580078,18.1289062 C131.021482,18.1289062 130.677735,18.0214854 130.548828,17.8066406 C130.491536,17.7063797 130.462891,17.5738941 130.462891,17.4091797 L130.462891,1.53222656 L132.364258,1.33886719 C132.586264,1.33886719 132.810057,1.40511001 133.035645,1.53759766 C133.261232,1.6700853 133.374023,1.84374893 133.374023,2.05859375 C133.374023,2.49544489 133.041019,2.71386719 132.375,2.71386719 L131.741211,2.69238281 C131.633789,2.69238281 131.555013,2.69596351 131.504883,2.703125 L131.676758,6.33398438 C131.676758,6.62760563 131.658854,7.05549849 131.623047,7.61767578 C131.587239,8.17985307 131.569336,8.58984246 131.569336,8.84765625 C131.648112,8.83333326 131.755533,8.80826841 131.891602,8.77246094 C132.192384,8.6936845 132.42692,8.65429688 132.595215,8.65429688 C132.76351,8.65429688 132.913899,8.71516866 133.046387,8.83691406 C133.178874,8.95865946 133.245117,9.10546789 133.245117,9.27734375 C133.245117,9.44921961 133.191407,9.60318942 133.083984,9.73925781 C132.976562,9.8753262 132.836915,9.94335938 132.665039,9.94335938 L132.665039,9.94335938 Z M140.8125,7.45117188 L140.876953,5.04492188 C140.876953,4.36457993 140.844727,3.87581529 140.780273,3.57861328 C140.71582,3.28141127 140.635254,2.9985365 140.538574,2.72998047 C140.441894,2.46142444 140.393555,2.25732492 140.393555,2.11767578 C140.393555,1.97802665 140.4222,1.86165411 140.479492,1.76855469 C140.536784,1.67545526 140.622721,1.60205105 140.737305,1.54833984 C140.851889,1.49462864 140.96289,1.45166032 141.070312,1.41943359 C141.177735,1.38720687 141.313801,1.36393236 141.478516,1.34960938 C141.750652,1.33528639 141.947591,1.328125 142.069336,1.328125 L142.28418,1.328125 C142.885745,1.328125 143.526689,1.6503874 144.207031,2.29492188 C145.030603,3.07552474 145.5319,3.89908421 145.710938,4.765625 C145.81836,5.27409108 145.889974,5.83984063 145.925781,6.46289062 C145.961589,7.08594062 145.986654,7.50130104 146.000977,7.70898438 C146.043946,8.18164299 146.101237,8.50390539 146.172852,8.67578125 L146.172852,9.69628906 C146.094075,9.83235745 146.054688,10.0543604 146.054688,10.3623047 C146.054688,11.4723363 145.800458,12.6861913 145.291992,14.0039062 C144.783526,15.3216212 144.153324,16.3242153 143.401367,17.0117188 C142.842771,17.5201848 142.465007,17.8209631 142.268066,17.9140625 C142.071125,18.0071619 141.877768,18.0537109 141.687988,18.0537109 C141.498209,18.0537109 141.292319,17.9910488 141.070312,17.8657227 C140.848306,17.7403965 140.737305,17.5524101 140.737305,17.3017578 C141.059572,16.9651676 141.220703,16.1022205 141.220703,14.7128906 C141.220703,13.8964803 141.15267,12.6826252 141.016602,11.0712891 C140.880533,9.45995288 140.8125,8.25325922 140.8125,7.45117188 L140.8125,7.45117188 Z M142.273438,14.6699219 L142.273438,16.7753906 C143.412115,15.9733033 144.21061,14.4801542 144.668945,12.2958984 C144.898113,11.1787054 145.012695,10.0221414 145.012695,8.82617188 C145.012695,4.70831274 143.995778,2.64941406 141.961914,2.64941406 L141.961914,2.67089844 C141.961914,4.03158232 142.012044,6.04572234 142.112305,8.71337891 C142.212566,11.3810355 142.266276,13.3665299 142.273438,14.6699219 L142.273438,14.6699219 Z M153.235352,7.45117188 L153.299805,5.04492188 C153.299805,4.36457993 153.267578,3.87581529 153.203125,3.57861328 C153.138672,3.28141127 153.058106,2.9985365 152.961426,2.72998047 C152.864746,2.46142444 152.816406,2.25732492 152.816406,2.11767578 C152.816406,1.97802665 152.845052,1.86165411 152.902344,1.76855469 C152.959636,1.67545526 153.045572,1.60205105 153.160156,1.54833984 C153.27474,1.49462864 153.385742,1.45166032 153.493164,1.41943359 C153.600586,1.38720687 153.736653,1.36393236 153.901367,1.34960938 C154.173504,1.33528639 154.370442,1.328125 154.492188,1.328125 L154.707031,1.328125 C155.308597,1.328125 155.949541,1.6503874 156.629883,2.29492188 C157.453455,3.07552474 157.954752,3.89908421 158.133789,4.765625 C158.241211,5.27409108 158.312825,5.83984063 158.348633,6.46289062 C158.38444,7.08594062 158.409505,7.50130104 158.423828,7.70898438 C158.466797,8.18164299 158.524088,8.50390539 158.595703,8.67578125 L158.595703,9.69628906 C158.516927,9.83235745 158.477539,10.0543604 158.477539,10.3623047 C158.477539,11.4723363 158.22331,12.6861913 157.714844,14.0039062 C157.206378,15.3216212 156.576176,16.3242153 155.824219,17.0117188 C155.265622,17.5201848 154.887859,17.8209631 154.690918,17.9140625 C154.493977,18.0071619 154.300619,18.0537109 154.11084,18.0537109 C153.92106,18.0537109 153.71517,17.9910488 153.493164,17.8657227 C153.271158,17.7403965 153.160156,17.5524101 153.160156,17.3017578 C153.482423,16.9651676 153.643555,16.1022205 153.643555,14.7128906 C153.643555,13.8964803 153.575522,12.6826252 153.439453,11.0712891 C153.303385,9.45995288 153.235352,8.25325922 153.235352,7.45117188 L153.235352,7.45117188 Z M154.696289,14.6699219 L154.696289,16.7753906 C155.834967,15.9733033 156.633461,14.4801542 157.091797,12.2958984 C157.320965,11.1787054 157.435547,10.0221414 157.435547,8.82617188 C157.435547,4.70831274 156.41863,2.64941406 154.384766,2.64941406 L154.384766,2.67089844 C154.384766,4.03158232 154.434895,6.04572234 154.535156,8.71337891 C154.635417,11.3810355 154.689128,13.3665299 154.696289,14.6699219 L154.696289,14.6699219 Z M167.817383,16.7646484 L168.268555,16.7539062 C168.862959,16.7539062 169.160156,16.8756498 169.160156,17.1191406 C169.217448,17.3626314 169.190593,17.5362951 169.07959,17.6401367 C168.968587,17.7439784 168.812827,17.7958984 168.612305,17.7958984 L165.851562,17.7958984 C165.429034,17.7958984 165.217773,17.6276058 165.217773,17.2910156 C165.217773,16.9544254 165.439776,16.7861328 165.883789,16.7861328 L166.560547,16.796875 C166.632162,16.796875 166.667969,16.4316443 166.667969,15.7011719 C166.667969,14.9706995 166.599936,13.47576 166.463867,11.2163086 C166.327799,8.95685719 166.259766,7.26139889 166.259766,6.12988281 C166.259766,6.12988281 166.274088,5.3815179 166.302734,3.88476562 C166.302734,3.41210701 166.284831,3.00390797 166.249023,2.66015625 C166.055663,2.7246097 165.88379,2.75683594 165.733398,2.75683594 C165.389647,2.75683594 165.217773,2.58138196 165.217773,2.23046875 C165.217773,2.0514314 165.328775,1.89567124 165.550781,1.76318359 C165.772788,1.63069595 166.048501,1.53580758 166.37793,1.47851562 C166.993818,1.37109321 167.450357,1.31738281 167.747559,1.31738281 C168.044761,1.31738281 168.257812,1.37646425 168.386719,1.49462891 C168.515626,1.61279356 168.580078,1.7524406 168.580078,1.91357422 C168.580078,2.07470784 168.531739,2.21435488 168.435059,2.33251953 C168.338378,2.45068418 168.214845,2.50976562 168.064453,2.50976562 L167.677734,2.49902344 C167.534504,2.49902344 167.428874,2.52945933 167.36084,2.59033203 C167.292806,2.65120473 167.258789,2.77115796 167.258789,2.95019531 C167.258789,4.38249414 167.351887,6.52732946 167.538086,9.38476562 C167.724285,12.2422018 167.817383,14.3870371 167.817383,15.8193359 L167.817383,16.7646484 Z M181.754883,2.48828125 L181.668945,10.6201172 L181.668945,17.3447266 C181.668945,17.6956398 181.525718,17.949869 181.239258,18.1074219 C181.088866,18.1861983 180.933106,18.2255859 180.771973,18.2255859 C180.610839,18.2255859 180.489095,18.2005211 180.406738,18.1503906 C180.324381,18.1002602 180.261719,18.0393884 180.21875,17.9677734 C180.175781,17.8961585 180.138184,17.8066412 180.105957,17.6992188 C180.07373,17.5917963 180.050456,17.4915369 180.036133,17.3984375 C179.957356,16.8756484 179.685224,15.7799563 179.219727,14.1113281 C178.317378,10.9029787 177.740887,8.48601073 177.490234,6.86035156 C177.475911,6.8102211 177.46696,6.74218793 177.463379,6.65625 C177.459798,6.57031207 177.454427,6.4986982 177.447266,6.44140625 C177.440104,6.28385338 177.400717,6.15494842 177.329102,6.0546875 C177.336263,5.75390475 177.273601,5.36898021 177.141113,4.89990234 C177.008626,4.43082448 176.935221,4.14974005 176.920898,4.05664062 L176.920898,17.9785156 L176.147461,17.9785156 L176.147461,17.5703125 C176.176107,17.4628901 176.172526,17.2373064 176.136719,16.8935547 C176.100911,16.549803 176.083008,16.1416039 176.083008,15.6689453 C176.083008,15.1962867 176.036459,14.1077559 175.943359,12.4033203 C175.85026,10.6988847 175.803711,9.65690294 175.803711,9.27734375 L175.803711,6.47363281 L175.954102,2.43457031 C175.954102,1.89029676 175.993489,1.58593782 176.072266,1.52148438 C176.258464,1.37825449 176.451822,1.30664062 176.652344,1.30664062 C176.852866,1.30664062 177.006835,1.33528617 177.114258,1.39257812 C177.36491,1.52864651 177.490234,1.71842326 177.490234,1.96191406 C177.490234,2.20540486 177.51888,2.44710167 177.576172,2.68701172 C177.633464,2.92692177 177.71582,3.19547377 177.823242,3.49267578 C177.930665,3.78987779 178.005859,4.01725182 178.048828,4.17480469 C178.091797,4.33235756 178.129394,4.51497292 178.161621,4.72265625 C178.193848,4.93033958 178.217122,5.11653563 178.231445,5.28125 C178.281576,5.83268505 178.344238,6.30891727 178.419434,6.70996094 C178.494629,7.11100461 178.639647,7.70719005 178.854492,8.49853516 C179.069337,9.28988026 179.273437,9.98990581 179.466797,10.5986328 C179.953778,12.1598385 180.229492,13.5598896 180.293945,14.7988281 C180.408529,15.0136729 180.480143,15.2750636 180.508789,15.5830078 L180.573242,7.91308594 L180.573242,1.40332031 C180.65918,1.03808411 180.900877,0.85546875 181.29834,0.85546875 C181.695803,0.85546875 181.894531,1.14192422 181.894531,1.71484375 L181.894531,1.84375 C181.801432,2.03711034 181.754883,2.25195194 181.754883,2.48828125 L181.754883,2.48828125 Z M193.8125,14.0146484 L192.985352,14.1005859 C192.49837,14.1005859 192.254883,13.8929057 192.254883,13.4775391 C192.254883,13.1194644 192.709631,12.8867193 193.619141,12.7792969 C193.798178,12.7578124 193.996906,12.7470703 194.215332,12.7470703 C194.433758,12.7470703 194.621744,12.8616525 194.779297,13.0908203 C194.93685,13.3199881 195.015625,13.6261374 195.015625,14.0092773 C195.015625,14.3924173 195.089029,15.0172483 195.23584,15.8837891 C195.38265,16.7503299 195.456055,17.3339829 195.456055,17.6347656 C195.456055,18.1718777 195.273439,18.4404297 194.908203,18.4404297 C194.542967,18.4404297 194.29948,18.2864599 194.177734,17.9785156 L194.177734,17.9570312 C194.091796,18.0000002 193.937827,18.0859369 193.71582,18.2148438 C193.278969,18.4583346 192.890464,18.5800781 192.550293,18.5800781 C192.210122,18.5800781 191.873537,18.512045 191.540527,18.3759766 C191.207518,18.2399082 190.921062,18.0662445 190.681152,17.8549805 C190.441242,17.6437164 190.226401,17.3697933 190.036621,17.0332031 C189.846841,16.6966129 189.689291,16.3636084 189.563965,16.0341797 C189.438639,15.704751 189.331218,15.3180361 189.241699,14.8740234 C189.152181,14.4300108 189.085938,14.0325538 189.042969,13.6816406 C189,13.3307274 188.964193,12.9225284 188.935547,12.4570312 C188.899739,11.8841117 188.881836,11.1858765 188.881836,10.3623047 L188.871094,8.74023438 C188.871094,5.29555569 189.358068,3.01465402 190.332031,1.89746094 C190.897789,1.23860348 191.631831,0.909179688 192.53418,0.909179688 C193.121422,0.909179688 193.415039,1.1168599 193.415039,1.53222656 C193.415039,1.68977943 193.359538,1.8151037 193.248535,1.90820312 C193.137532,2.00130255 193.006837,2.04785156 192.856445,2.04785156 L192.254883,1.94042969 C191.724932,1.94042969 191.305991,2.27343417 190.998047,2.93945312 C190.682941,3.62695656 190.478842,4.30549795 190.385742,4.97509766 C190.292643,5.64469736 190.22461,6.18001102 190.181641,6.58105469 C190.138672,6.98209836 190.110026,7.42968503 190.095703,7.92382812 C190.067057,8.61849306 190.052734,9.31314757 190.052734,10.0078125 L190.041992,11.3720703 C190.041992,12.8115306 190.102864,13.8194958 190.224609,14.3959961 C190.346355,14.9724964 190.469889,15.4361962 190.595215,15.7871094 C190.720541,16.1380226 190.86914,16.4316394 191.041016,16.6679688 C191.442059,17.1907578 191.955889,17.4521484 192.58252,17.4521484 C193.20915,17.4521484 193.730141,17.1442088 194.145508,16.5283203 C194.124023,15.2106054 194.013022,14.3727231 193.8125,14.0146484 L193.8125,14.0146484 Z M213.378418,2.43994141 C213.167154,2.23583882 212.963054,2.13378906 212.766113,2.13378906 C212.569172,2.13378906 212.409831,2.18391877 212.288086,2.28417969 C212.166341,2.38444061 212.0625,2.53482973 211.976562,2.73535156 C211.890625,2.9358734 211.811849,3.14892465 211.740234,3.37451172 C211.668619,3.60009878 211.609538,3.87581217 211.562988,4.20166016 C211.516439,4.52750814 211.475261,4.82291534 211.439453,5.08789062 C211.403646,5.35286591 211.375,5.66796692 211.353516,6.03320312 C211.332031,6.39843933 211.314128,6.69563687 211.299805,6.92480469 C211.285482,7.1539725 211.27653,7.42968589 211.272949,7.75195312 C211.269368,8.07422036 211.267578,8.28906196 211.267578,8.39648438 L211.267578,8.84765625 C211.267578,10.0293028 211.37858,11.3828049 211.600586,12.9082031 C212.044599,15.9088692 212.67122,17.4091797 213.480469,17.4091797 C213.766929,17.4091797 214.010416,17.1352566 214.210938,16.5874023 C214.411459,16.039548 214.551106,15.3538453 214.629883,14.5302734 C214.773113,13.1337821 214.844727,12.1222362 214.844727,11.4956055 C214.844727,10.8689747 214.842936,10.4195977 214.839355,10.1474609 C214.835775,9.87532416 214.825033,9.47965754 214.807129,8.96044922 C214.789225,8.44124089 214.758789,7.9542666 214.71582,7.49951172 C214.672851,7.04475684 214.619141,6.54166942 214.554688,5.99023438 C214.490234,5.43879933 214.402507,4.94824434 214.291504,4.51855469 C214.180501,4.08886504 214.053386,3.68603704 213.910156,3.31005859 C213.766926,2.93408015 213.589682,2.64404399 213.378418,2.43994141 L213.378418,2.43994141 Z M215.84375,11.3613281 L215.650391,14.1435547 L215.650391,14.2402344 C215.557291,14.6484395 215.510742,15.0888648 215.510742,15.5615234 C215.510742,16.0341821 215.430177,16.4907205 215.269043,16.9311523 C215.107909,17.3715842 214.860842,17.7618798 214.527832,18.1020508 C214.194823,18.4422218 213.831382,18.6123047 213.4375,18.6123047 C213.043618,18.6123047 212.683758,18.4762383 212.35791,18.2041016 C212.032062,17.9319648 211.76351,17.5828472 211.552246,17.1567383 C211.340982,16.7306294 211.152996,16.2221709 210.988281,15.6313477 C210.823567,15.0405244 210.698243,14.4640328 210.612305,13.9018555 C210.526367,13.3396782 210.454753,12.7470734 210.397461,12.1240234 C210.318685,11.1715447 210.279297,10.3891632 210.279297,9.77685547 C210.279297,9.16454772 210.290039,8.6614603 210.311523,8.26757812 C210.340169,7.54426722 210.372396,6.90153276 210.408203,6.33935547 C210.444011,5.77717818 210.465495,5.34570463 210.472656,5.04492188 C210.479818,4.74413912 210.486979,4.48990989 210.494141,4.28222656 C210.501302,4.07454323 210.522786,3.81852366 210.558594,3.51416016 C210.594401,3.20979666 210.63737,2.95019639 210.6875,2.73535156 C210.73763,2.52050674 210.814615,2.29492306 210.918457,2.05859375 C211.022299,1.82226444 211.145833,1.628907 211.289062,1.47851562 C211.618491,1.1419254 211.987303,0.973632812 212.395508,0.973632812 C212.803713,0.973632812 213.129556,1.01302044 213.373047,1.09179688 C213.616538,1.17057331 213.822428,1.27262307 213.990723,1.39794922 C214.159018,1.52327537 214.312988,1.68798726 214.452637,1.89208984 C214.592286,2.09619243 214.706868,2.29492091 214.796387,2.48828125 C214.885905,2.68164159 214.966471,2.91438666 215.038086,3.18652344 C215.131185,3.53027516 215.224283,4.02083015 215.317383,4.65820312 C215.668296,7.16472607 215.84375,9.39907873 215.84375,11.3613281 L215.84375,11.3613281 Z M226.064453,9.10546875 C226.064453,9.58528886 225.455735,9.82519531 224.238281,9.82519531 C224.238281,10.6201212 224.308105,11.8124921 224.447754,13.4023438 C224.587403,14.9921954 224.657227,16.188147 224.657227,16.9902344 L224.614258,17.1298828 C224.635742,17.1943363 224.646484,17.3017571 224.646484,17.4521484 C224.646484,17.6025398 224.578451,17.7350255 224.442383,17.8496094 C224.306314,17.9641933 224.12728,18.0214844 223.905273,18.0214844 C223.482745,18.0214844 223.271484,17.5524135 223.271484,16.6142578 C223.271484,15.2177665 223.19808,12.5787954 223.05127,8.69726562 C222.904459,4.8157358 222.75586,2.76041781 222.605469,2.53125 C222.605469,1.77213162 223.124669,1.36751327 224.163086,1.31738281 C224.313477,1.31022132 224.524738,1.30664062 224.796875,1.30664062 C225.069012,1.30664062 225.282063,1.35677033 225.436035,1.45703125 C225.590007,1.55729217 225.666992,1.76139169 225.666992,2.06933594 C225.666992,2.37728019 225.462893,2.53125 225.054688,2.53125 L224.517578,2.50976562 C224.109373,2.50976562 223.905273,2.59212157 223.905273,2.75683594 C223.905273,3.43717788 223.958984,4.43440098 224.066406,5.74853516 C224.173829,7.06266933 224.23112,8.03482758 224.238281,8.66503906 C224.868493,8.50748619 225.271321,8.42871094 225.446777,8.42871094 C225.622234,8.42871094 225.769042,8.49853446 225.887207,8.63818359 C226.005372,8.77783273 226.064453,8.93359289 226.064453,9.10546875 L226.064453,9.10546875 Z" id="THE-WEDDING-OF"></path>
            </g>
        </g>
    </g>
</svg>